<?xml version="1.0" encoding="UTF-8"?>
<svg id="Ebene_1" xmlns="http://www.w3.org/2000/svg" width="21.6mm" height="21.6mm" baseProfile="tiny" version="1.2" viewBox="0 0 61.2283 61.2283">
  <!-- Generator: Adobe Illustrator 29.8.2, SVG Export Plug-In . SVG Version: 2.1.1 Build 3)  -->
  <g>
    <circle cx="30.6142" cy="30.6142" r="30.6142" fill="#fff"/>
    <path d="M30.6142,1c16.3293,0,29.6142,13.2849,29.6142,29.6142s-13.2849,29.6142-29.6142,29.6142S1,46.9435,1,30.6142,14.2849,1,30.6142,1M30.6142,0C13.7064,0,0,13.7064,0,30.6142s13.7064,30.6142,30.6142,30.6142,30.6142-13.7064,30.6142-30.6142S47.5219,0,30.6142,0h0Z" fill="#1d1d1b"/>
  </g>
  <polygon points="30.6142 6.5724 26.6058 15.0292 34.6225 15.0292 30.6142 6.5724 26.6058 15.0292 34.6225 15.0292 30.6142 6.5724" fill="none" stroke="#000" stroke-miterlimit="10" stroke-width=".5"/>
</svg>