<svg width="57" height="56" viewBox="0 0 57 56" fill="none" xmlns="http://www.w3.org/2000/svg">
<path fill-rule="evenodd" clip-rule="evenodd" d="M29.6919 7H26.6919V20.2832L21.7159 7.96722L18.9344 9.09104L24.0392 21.726L14.4033 12.0901L12.282 14.2114L21.5176 23.447L9.54896 18.2178L8.34786 20.9669L21.0121 26.5H7.19189V29.5H21.0121L8.34786 35.0331L9.54896 37.7822L21.5176 32.553L12.282 41.7886L14.4033 43.9098L24.0392 34.274L18.9344 46.909L21.7159 48.0327L26.6919 35.7169V49H29.6919V35.7169L34.6679 48.0327L37.4493 46.909L32.3446 34.274L41.9805 43.9098L44.1017 41.7886L34.8661 32.553L46.8349 37.7822L48.0358 35.0331L35.3718 29.5H49.1919V26.5H35.3716L48.0358 20.9669L46.8349 18.2178L34.8661 23.447L44.1017 14.2114L41.9805 12.0901L32.3446 21.726L37.4493 9.09104L34.6679 7.96722L29.6919 20.2832V7Z" fill="#E57361"/>
</svg>
