<svg width="54" height="15" viewBox="0 0 54 15" fill="none" xmlns="http://www.w3.org/2000/svg">
<path d="M7.218 2.786C8.802 2.786 10.134 3.506 10.548 5.054H12.978C12.6 2.372 10.278 0.625999 7.272 0.625999C3.312 0.625999 0.702 3.47 0.702 7.466C0.702 11.516 3.276 14.198 6.966 14.198C8.748 14.198 10.242 13.496 10.962 12.488L11.106 14H13.05V6.602H6.93V8.636H10.908V8.69C10.908 10.796 9.522 12.056 7.236 12.056C4.806 12.056 3.114 10.454 3.114 7.52C3.114 4.676 4.608 2.786 7.218 2.786ZM14.9621 10.184H34.2941V8.24H14.9621V10.184ZM35.7007 4.514C35.7007 6.53 36.8707 7.808 39.1027 8.294L41.1907 8.762C42.2707 8.996 42.7207 9.518 42.7207 10.4C42.7207 11.498 41.7487 12.164 40.2187 12.164C38.7427 12.164 37.8427 11.498 37.8247 10.382H35.5207C35.5747 12.74 37.4107 14.234 40.2187 14.234C43.1167 14.234 45.0247 12.65 45.0247 10.202C45.0247 8.24 43.9267 7.088 41.6767 6.602L39.6067 6.152C38.5087 5.9 38.0047 5.378 38.0047 4.442C38.0047 3.344 38.9227 2.66 40.3447 2.66C41.6407 2.66 42.4507 3.326 42.5047 4.46H44.8087C44.7367 2.084 43.0447 0.608 40.3807 0.608C37.6087 0.608 35.7007 2.21 35.7007 4.514ZM49.8631 8.24C52.0411 8.24 53.6791 6.602 53.6791 4.424C53.6791 2.246 52.0411 0.608 49.8631 0.608C47.6851 0.608 46.0111 2.264 46.0111 4.424C46.0111 6.584 47.6671 8.24 49.8631 8.24ZM49.8631 7.556C48.0631 7.556 46.7491 6.224 46.7491 4.424C46.7491 2.624 48.0631 1.292 49.8631 1.292C51.6451 1.292 52.9591 2.624 52.9591 4.424C52.9591 6.224 51.6451 7.556 49.8631 7.556ZM49.0531 6.512V4.964H50.0791L50.8891 6.512H51.6991L50.7631 4.784C51.3211 4.568 51.6271 4.082 51.6271 3.524C51.6271 2.696 50.9971 2.21 50.0431 2.21H48.3151V6.512H49.0531ZM50.8531 3.578C50.8531 4.028 50.5471 4.298 50.0251 4.298H49.0531V2.912H50.0251C50.5651 2.912 50.8531 3.128 50.8531 3.578Z" fill="black"/>
</svg>
