<?xml version="1.0" encoding="UTF-8"?>
<svg id="Ebene_1" data-name="Ebene 1" xmlns="http://www.w3.org/2000/svg" width="535.42" height="106.59" viewBox="0 0 535.42 106.59">
  <defs>
    <style>
      .cls-1 {
        fill: #a6c5a1;
      }
    </style>
  </defs>
  <g>
    <path d="M134.09,21.16h-21.95V7.77h58.3v13.39h-21.95v60.22h-14.41V21.16Z"/>
    <path d="M174.5,49.07c0-16.77,9.9-24.76,24.42-24.76s24.31,7.99,24.31,24.99v.34h-13.28v-.56c0-9-4.5-12.27-11.03-12.27s-11.03,3.27-11.03,12.27v32.3h-13.39v-32.3Z"/>
    <path d="M325.48,66.58c-1.44-6.04-10.81-4.39-20.82-10.2-4.73-2.75-10.59-9.19-22.3-22.09-1.3-1.43-2.7-3.01-5.04-4.67-4.83-3.42-10.97-5.32-17.96-5.32-17.68,0-30.06,12.17-30.06,29.82,0,19.04,14.19,28.7,27.69,28.7,8.77,0,16.32-4.15,19.7-12.38v10.93h12.26v-12c-.23-3.42.7-6.33,2.77-7.46,2.09-1.13,4.6.02,5.6.47,6.07,2.77,5.02,8.46,9.94,11.61,5.81,3.68,16.3,1.48,18.05-3.47.42-1.13.52-2.46.16-3.94ZM259.25,70.34c-9.8,0-16.44-6.96-16.44-16.76s6.64-16.76,16.44-16.76,16.32,6.99,16.32,16.76-6.52,16.76-16.32,16.76Z"/>
    <path d="M403.07.68c-5.18,0-8.89,3.82-8.89,9s3.7,8.89,8.89,8.89,8.89-3.7,8.89-8.89-3.7-9-8.89-9Z"/>
    <path d="M425.57,24.54c0-16.43,9.91-24.54,24.42-24.54s24.31,8.22,24.31,24.65h-13.28c0-8.78-4.5-12.16-11.03-12.16s-11.03,3.49-11.03,12.04v9.01h28.59v12.15h-28.59v35.68h-13.39V24.54Z"/>
    <path d="M480.95,87.45h13.39c2.25,5.18,6.64,7.54,13.39,7.54,9.12,0,14.29-4.39,14.29-15.19v-6.98c-3.38,6.08-9.23,9.34-16.55,9.34-12.83,0-24.99-8.33-24.99-28.14v-28.25h13.39v28.25c0,10.58,5.63,15.65,14.07,15.65s14.07-5.29,14.07-15.65v-28.25h13.39v53.69c0,19.36-12.27,27.13-27.69,27.13-12.94,0-23.63-5.96-26.79-19.14Z"/>
    <path d="M409.7,25.79v55.59h-13.39v-20.07c-1.69-5.89-9.4-10.13-15.1-12-6.92-2.27-18.97-2.04-20.84-10.2-.33-1.48-.26-2.81.16-3.94,1.85-5.16,12.71-7.34,18.05-3.47,3.89,2.84,2.7,7.27,7.85,10.48,1.03.66,3.56,2.2,5.96,1.41,1.83-.63,3.26-2.58,3.92-5.3v-12.5h13.39Z"/>
    <path d="M363.13,73.99c-3.21-2.13-4.62-6.1-7.33-8.72-.95-.91-1.66-1.11-3.46-2.13-10.31-5.9-12.44-8.45-20.21-11.95-1.21-.54-2.29-1.12-4.59-1.89-6.9-2.28-18.96-2.04-20.83-10.2-2.07-8.99,11.56-11.83,18.21-7.41,3.21,2.15,4.62,6.1,7.33,8.72.65.63,1.25.95,2.36,1.7,7.06,4.76,12.98,8.75,21.32,12.41,1.43.63,2.44,1.17,4.58,1.87,6.9,2.26,18.97,2.04,20.84,10.2,2.06,8.99-11.57,11.82-18.22,7.4Z"/>
  </g>
  <rect class="cls-1" x="42.45" y="6.56" width="16.37" height="81.86" rx="8.19" ry="8.19" transform="translate(-18.75 49.71) rotate(-45)"/>
  <rect class="cls-1" x="14.47" y="29.45" width="16.37" height="57.3" rx="8.19" ry="8.19" transform="translate(-34.45 33.04) rotate(-45)"/>
  <rect class="cls-1" x="71.39" y="10.56" width="16.37" height="54.57" rx="8.19" ry="8.19" transform="translate(-3.45 67.35) rotate(-45)"/>
</svg>