<?xml version="1.0" encoding="UTF-8"?>
<svg id="Ebene_1" data-name="Ebene 1" xmlns="http://www.w3.org/2000/svg" version="1.1" viewBox="0 0 32 32">
  <defs>
    <style>
      .cls-1 {
        fill: #000;
        stroke-width: 0px;
      }
    </style>
  </defs>
  <path class="cls-1" d="M5.8,18.1h-.8l-.3-.7h-1.9l-.3.7h-.8l1.8-4.2h.6l1.8,4.2ZM3.7,14.8l-.7,1.9h1.5l-.7-1.9Z"/>
  <path class="cls-1" d="M6.5,13.9h.7l2.4,3v-3h.8v4.2h-.7l-2.4-3v3h-.8v-4.2Z"/>
  <path class="cls-1" d="M11.8,16.9c0,.4.3.7.8.7s.7-.2.7-.6-.2-.5-.6-.6h-.5c-.6-.3-1.1-.6-1.1-1.3s.6-1.2,1.4-1.2,1.3.5,1.4,1.2h-.7c0-.3-.3-.6-.6-.6s-.6.2-.6.5.2.5.6.5h.5c.6.3,1.1.7,1.1,1.4s-.7,1.3-1.5,1.3-1.4-.5-1.5-1.3h.7Z"/>
  <path class="cls-1" d="M14.8,13.9h2.8v.7h-2v1h2v.7h-2v1.1h2.1v.7h-2.8v-4.2Z"/>
  <path class="cls-1" d="M18.4,13.9h.8v1.7h2.1v-1.7h.8v4.2h-.8v-1.8h-2.1v1.8h-.8v-4.2Z"/>
  <path class="cls-1" d="M22.9,13.9h2.8v.7h-2v1h2v.7h-2v1.1h2.1v.7h-2.8v-4.2Z"/>
  <path class="cls-1" d="M26.5,13.9h.7l2.4,3v-3h.8v4.2h-.7l-2.4-3v3h-.8v-4.2Z"/>
</svg>