<svg width="160" height="156" viewBox="0 0 160 156" fill="none" xmlns="http://www.w3.org/2000/svg">
<rect width="160" height="156" rx="15" fill="white"/>
<path d="M42.7632 76.5013C42.7632 95.8045 58.4626 111.453 77.8172 111.453C97.1717 111.453 112.871 95.8045 112.871 76.5013C112.871 57.1981 97.1717 41.5415 77.8172 41.5415C58.4626 41.5415 42.7632 57.1981 42.7632 76.5013Z" fill="url(#paint0_radial_78_345)"/>
<path d="M63.0166 48.9975C60.3201 49.1088 57.7264 49.4683 55.1498 49.8535C47.8394 56.0425 43.1141 65.1591 42.7888 75.3971C44.8604 77.5714 47.5826 82.4764 50.7327 85.3184C51.1728 85.1274 51.6245 84.9644 52.0852 84.8305C50.5444 83.0414 48.3787 80.6702 48.0534 79.5745C46.4697 74.2244 48.3102 69.2167 52.2907 68.8229C55.8517 68.4634 58.9077 63.1817 61.4244 59.7063C66.6033 52.5671 74.5472 53.757 74.1534 50.1874C73.6911 48.0987 72.4585 47.4567 70.8748 47.4567C68.5037 47.4567 65.3706 48.9033 63.0166 48.9975Z" fill="url(#paint1_radial_78_345)"/>
<path d="M53.5833 84.4024L52.0852 84.8304C51.6572 84.9417 51.3148 85.1129 50.7327 85.3183C49.4487 85.8919 48.5156 86.765 48.3016 88.6397C47.9079 92.0381 51.1436 94.7003 53.8743 95.4793C57.3326 96.4723 57.6237 95.3166 59.4384 97.7649C60.7139 99.4769 60.9536 102.644 61.6042 104.733C61.9816 105.928 62.4628 107.088 63.0423 108.2C65.5478 109.364 68.1829 110.226 70.892 110.768C71.5682 106.744 71.2601 101.309 72.1674 98.9633C74.0164 94.1525 75.0608 92.0295 72.5612 87.0732C67.057 85.5152 65.3792 85.0273 59.8408 83.8888C58.7023 83.6577 58.0003 83.5464 57.3669 83.5464C56.3824 83.5464 55.5692 83.8203 53.5833 84.4024Z" fill="url(#paint2_radial_78_345)"/>
<path d="M87.6699 56.5304C86.0521 58.8503 80.351 59.4837 78.5277 62.086C77.1067 64.1148 78.5704 68.1038 77.3378 70.4065C76.7642 71.468 77.0296 74.5496 77.723 75.5597C79.9144 78.7441 83.561 76.9722 86.3003 78.1192C89.6473 79.506 90.0325 83.3838 92.806 86.2086C95.5795 89.0335 89.2621 93.4163 94.4239 103.723C94.9718 104.827 95.6223 105.64 96.3072 106.197C99.7893 104.031 102.866 101.273 105.398 98.0474C106.186 92.8428 104.422 91.1821 106.622 86.4141C107.983 83.4779 110.312 78.3846 112.82 74.9349C112.4 65.2875 108.052 56.6503 101.332 50.5811C100.699 50.7523 99.9024 50.7866 98.8067 50.5897C97.9634 50.426 97.1063 50.3429 96.2472 50.3414C91.0683 50.3414 89.5189 53.8939 87.6699 56.5304Z" fill="url(#paint3_radial_78_345)"/>
<path d="M66.5776 68.6944C72.5441 66.1691 79.0156 64.1489 87.7299 63.4213C85.5042 58.1054 83.056 54.3475 80.1712 50.9149C73.7511 51.4285 67.8788 53.1577 62.8111 55.2463C63.5559 59.184 64.9683 63.9435 66.5776 68.6944ZM94.3897 83.3409C86.1377 83.2467 78.9385 85.2156 74.0079 87.6295C76.0966 92.1065 80.2226 98.0473 81.7634 100.487C84.4513 99.494 87.3275 98.7492 89.5703 98.3983C91.8131 98.0473 94.7835 97.722 96.8037 97.7562C96.4441 92.5431 95.8278 89.0248 94.3897 83.3409ZM72.5184 84.642C79.1097 81.6203 86.3517 80.2592 93.6449 80.4561C91.6504 73.5823 90.5119 70.3893 88.817 66.2034C80.7191 66.5543 73.811 68.5489 67.5193 71.5193C67.5193 71.5193 69.8391 78.9581 72.5184 84.642ZM97.8651 51.4627C93.8247 50.7266 87.9267 50.2643 83.5525 50.5297C86.54 54.6471 88.7228 58.2338 90.7773 63.3443C96.3072 63.4812 103.832 65.1334 106.913 66.3403C105.073 61.4439 101.58 55.2378 97.8651 51.4627ZM110.44 83.9487C110.192 79.4118 109.498 73.3426 107.804 69.1138C103.335 67.3248 97.2231 66.2034 91.8559 66.152C93.508 70.0041 95.434 76.4414 96.3757 80.5845C100.253 81.0553 106.314 82.1425 110.44 83.9487ZM106.751 52.1904C100.981 45.1453 87.9267 39.1532 73.4001 40.0606C76.6444 42.1921 79.3494 45.4192 81.712 48.0729C85.3416 47.7391 92.9601 48.3383 95.8278 49.1258C95.3399 48.5523 94.7407 47.9873 94.5866 47.6449C94.1757 46.7718 95.1601 46.5834 95.9476 47.0799C96.9406 47.7219 98.0877 48.4752 98.9951 49.3997C100.681 49.7764 104.825 51.1974 106.751 52.1904ZM113.701 86.0973C113.539 86.6622 112.546 87.2272 112.084 87.0902C112.152 88.0918 111.912 93.0738 111.647 94.9999C112.34 93.5789 113.667 90.0435 114.07 88.5626L114.626 86.3626C115.191 84.5051 116.997 78.0592 115.362 69.5932C113.539 60.1856 110.123 56.8214 108.933 55.3319C105.903 53.6884 101.315 52.1904 101.315 52.1904C105.467 57.8058 106.913 60.4509 109.396 67.1364C110.842 67.8812 113.462 69.3279 113.779 69.7302C114.095 70.1325 114.052 70.6033 113.231 70.5862C112.546 70.5862 111.219 69.9356 110.192 69.6617C111.287 73.2998 112.126 80.1051 112.066 84.6677C112.066 84.6677 113.873 85.5323 113.701 86.0973ZM108.403 99.9476C109.002 99.3484 109.892 98.0901 110.243 97.3539C110.594 94.3664 110.603 88.2373 110.474 86.4568C106.862 84.993 101.281 83.8374 97.206 83.5378C98.5328 88.3914 99.192 95.5306 99.2947 97.859C101.246 98.0558 106.186 99.0488 108.403 99.9476ZM99.1235 108.148C102.291 106.188 105.253 103.928 107.41 101.206C105.552 100.744 101.409 100.179 99.3546 100.316C99.3546 100.316 99.2947 105.229 99.1235 108.148ZM90.4948 112.206C92.0699 111.709 96.076 109.895 96.9064 109.347C97.0797 106.328 97.0911 103.302 96.9406 100.281C92.729 100.281 86.7968 101.506 83.407 102.927C85.3758 106.094 88.0894 109.578 90.4948 112.206ZM71.5768 109.458C72.7495 110.639 77.4148 113.721 77.4148 113.721C80.5136 113.849 84.4342 113.49 87.2334 113.002C85.684 111.247 81.8405 105.811 80.6677 103.979C77.6888 105.229 73.9137 107.523 71.5768 109.458ZM58.8307 96.515C61.801 100.307 66.4407 105.118 69.6764 107.78C72.7324 105.332 76.1993 103.038 79.0841 101.643C76.5931 97.799 72.9207 92.2092 71.3799 88.768C65.8586 91.2077 62.7255 93.2536 58.8307 96.515ZM50.9467 81.3036C52.8385 86.6794 54.6618 90.7797 57.0501 94.161C59.8408 91.747 65.559 87.9206 69.9332 85.8319C68.4951 82.7417 66.415 76.9721 64.9683 72.6492C59.3272 75.4056 55.1241 78.0935 50.9467 81.3036ZM46.4269 65.159C46.8721 68.2493 48.3615 74.9262 49.7055 78.3075C52.8899 75.9192 60.089 71.485 64.1722 69.6959C62.7427 64.5085 61.7839 61.2385 60.9878 56.0082C55.2268 58.5677 49.132 62.5396 46.4269 65.159ZM45.725 54.1421C45.5281 55.7 45.7336 58.5763 46.1273 62.0174C49.3117 59.184 55.4579 55.4775 60.5941 53.2176C59.9948 49.3141 59.3614 43.0909 59.4299 41.4302C54.679 44.0325 49.4658 49.2542 45.6394 54.6214M61.1847 38.3656C68.0157 35.5493 74.667 34 82.3455 35.0443C83.2015 35.1641 83.1245 35.8832 82.2171 35.8918L81.1385 35.926C74.9581 36.0202 65.8586 37.9804 61.1505 40.6341C61.0563 43.7586 61.647 48.732 62.2804 52.6526C66.552 50.8635 73.169 49.0231 78.1853 48.4667C75.3347 45.4535 71.4569 42.5944 70.9947 42.2605C70.5324 41.9267 70.3013 41.3617 70.3013 40.6341C70.3698 39.273 71.5425 39.1018 72.1674 39.2645C74.2561 38.8536 76.3363 38.3999 79.8716 38.5112C94.8348 37.8606 108.497 46.2924 113.71 55.914C126.927 76.7495 113.719 105.503 96.4185 113.156C89.0139 116.435 82.6708 117.847 70.9776 116.221C59.2844 114.594 49.6798 108.876 42.241 96.866C33.0731 82.0654 38.2348 64.8252 39.5189 61.2128C45.0402 48.2355 54.0798 41.3532 61.1847 38.3656ZM43.5422 64.012C43.3966 61.7692 43.2169 58.7047 43.2169 58.7047C41.5648 62.2828 40.5803 64.44 40.1181 68.6259C41.2737 66.58 43.5422 64.012 43.5422 64.012ZM67.6819 109.449C65.1909 107.592 59.0447 101.78 56.4937 98.2699C55.5521 98.8177 54.5078 100.316 53.1553 100.573C52.6245 100.667 51.4175 100.812 51.0666 100.667C50.7156 100.521 51.1436 99.7764 51.5288 99.28C52.4034 98.1221 53.4282 97.0857 54.5762 96.1983C51.5459 91.7641 50.1078 88.5198 48.0448 83.1782C46.8464 83.923 45.9818 84.5821 44.946 85.4039C44.5951 85.6778 43.6278 85.8576 43.1655 85.4381C42.3181 84.6763 42.3009 83.3409 43.4994 82.4934C43.9873 82.151 46.4098 80.4818 46.9748 80.011C45.4853 75.7223 44.2355 70.0897 43.9017 67.1621C42.9087 68.0267 41.5134 69.0026 41.1196 69.2765C40.5547 69.4306 40.178 69.2508 40.0154 69.2251C39.4504 75.2857 40.101 81.9627 41.9072 87.9891C45.0145 98.3555 53.7288 108.234 65.4905 111.915C65.7644 111.504 67.1169 109.946 67.6819 109.449ZM73.811 113.601C72.6468 112.933 71.1916 111.906 69.8391 111.007C69.2741 111.504 68.8204 112.232 68.3667 112.822C69.9247 113.353 72.0219 113.396 73.811 113.601Z" fill="#1F191A"/>
<defs>
<radialGradient id="paint0_radial_78_345" cx="0" cy="0" r="1" gradientUnits="userSpaceOnUse" gradientTransform="translate(66.5254 70.011) scale(24.7886 24.7886)">
<stop stop-color="#A9E0F6"/>
<stop offset="1" stop-color="#147BC1"/>
</radialGradient>
<radialGradient id="paint1_radial_78_345" cx="0" cy="0" r="1" gradientUnits="userSpaceOnUse" gradientTransform="translate(64.8562 70.3697) scale(30.3288)">
<stop stop-color="#A4CD39"/>
<stop offset="0.96" stop-color="#0F9F49"/>
<stop offset="1" stop-color="#0F9F49"/>
</radialGradient>
<radialGradient id="paint2_radial_78_345" cx="0" cy="0" r="1" gradientUnits="userSpaceOnUse" gradientTransform="translate(71.8832 68.382) scale(38.7092)">
<stop stop-color="#A4CD39"/>
<stop offset="0.96" stop-color="#0F9F49"/>
<stop offset="1" stop-color="#0F9F49"/>
</radialGradient>
<radialGradient id="paint3_radial_78_345" cx="0" cy="0" r="1" gradientUnits="userSpaceOnUse" gradientTransform="translate(75.9288 51.8865) scale(50.9794)">
<stop stop-color="#A4CD39"/>
<stop offset="0.96" stop-color="#0F9F49"/>
<stop offset="1" stop-color="#0F9F49"/>
</radialGradient>
</defs>
</svg>
