<svg width="768" height="709" viewBox="0 0 768 709" fill="none" xmlns="http://www.w3.org/2000/svg">
<circle cx="528" cy="240" r="180" stroke="#A6C4A1" stroke-width="18" stroke-linecap="round" stroke-linejoin="round"/>
<path d="M528 140V238.764C528 239.521 528.428 240.214 529.106 240.553L608 280" stroke="#A6C4A1" stroke-width="18" stroke-linecap="round" stroke-linejoin="round"/>
<rect width="390" height="631" transform="translate(81 78)" fill="white"/>
<rect x="270" y="216" width="30" height="30" rx="10" fill="#A6C4A1"/>
<path d="M100.469 187V180.386H100.558L103.243 186.733H104.322L107.007 180.386H107.096V187H108.417V177.84H106.753L103.833 184.797H103.726L100.812 177.84H99.1489V187H100.469ZM113.476 185.921C112.289 185.921 111.622 185.051 111.622 183.541C111.622 182.042 112.289 181.167 113.476 181.167C114.656 181.167 115.329 182.042 115.329 183.541C115.329 185.045 114.656 185.921 113.476 185.921ZM113.476 187.133C115.494 187.133 116.732 185.781 116.732 183.541C116.732 181.312 115.488 179.954 113.476 179.954C111.457 179.954 110.213 181.312 110.213 183.541C110.213 185.781 111.451 187.133 113.476 187.133ZM118.376 187H119.741V182.957C119.741 181.877 120.414 181.205 121.512 181.205C122.527 181.205 123.022 181.757 123.022 182.868V187H124.387V182.525C124.387 180.881 123.518 179.954 121.975 179.954C120.934 179.954 120.128 180.417 119.792 181.186H119.69V180.087H118.376V187Z" fill="#8F9BB3"/>
<path d="M105.505 232.254H106.838C108.222 232.254 109.079 232.935 109.079 234.026C109.079 235.066 108.171 235.806 106.882 235.806C105.6 235.806 104.721 235.154 104.619 234.129H103.044C103.139 236.019 104.663 237.256 106.882 237.256C109.086 237.256 110.756 235.909 110.756 234.114C110.756 232.701 109.877 231.712 108.435 231.543V231.419C109.599 231.155 110.324 230.218 110.324 228.973C110.324 227.383 108.815 226.175 106.853 226.175C104.736 226.175 103.359 227.354 103.249 229.266H104.809C104.897 228.226 105.651 227.588 106.801 227.588C107.951 227.588 108.706 228.233 108.706 229.214C108.706 230.21 107.922 230.899 106.787 230.899H105.505V232.254ZM115.371 237H117.011V226.431H115.378L112.595 228.394V230.071L115.246 228.196H115.371V237Z" fill="#8F9BB3"/>
<path d="M111.139 288.256C113.38 288.256 114.97 286.718 114.97 284.565C114.97 282.521 113.505 281.042 111.498 281.042C110.246 281.042 109.235 281.621 108.722 282.639H108.598C108.634 280.097 109.572 278.625 111.198 278.625C112.157 278.625 112.904 279.152 113.168 280.017H114.816C114.494 278.288 113.08 277.175 111.212 277.175C108.568 277.175 107.023 279.27 107.023 282.851C107.023 284.14 107.235 285.217 107.667 286.066C108.356 287.48 109.572 288.256 111.139 288.256ZM111.125 286.813C109.865 286.813 108.905 285.847 108.905 284.587C108.905 283.334 109.843 282.426 111.132 282.426C112.428 282.426 113.344 283.334 113.344 284.616C113.344 285.861 112.384 286.813 111.125 286.813Z" fill="#222B45"/>
<path d="M105.732 341H107.373V330.431H105.739L102.956 332.394V334.071L105.607 332.196H105.732V341ZM112.756 336.254H114.089C115.473 336.254 116.33 336.935 116.33 338.026C116.33 339.066 115.422 339.806 114.133 339.806C112.851 339.806 111.972 339.154 111.87 338.129H110.295C110.39 340.019 111.914 341.256 114.133 341.256C116.337 341.256 118.007 339.909 118.007 338.114C118.007 336.701 117.128 335.712 115.686 335.543V335.419C116.85 335.155 117.575 334.218 117.575 332.973C117.575 331.383 116.066 330.175 114.104 330.175C111.987 330.175 110.61 331.354 110.5 333.266H112.06C112.148 332.226 112.902 331.588 114.052 331.588C115.202 331.588 115.957 332.233 115.957 333.214C115.957 334.21 115.173 334.899 114.038 334.899H112.756V336.254Z" fill="#222B45"/>
<path d="M162.894 187V179.135H165.77V177.84H158.59V179.135H161.472V187H162.894ZM172.466 180.087H171.108V184.131C171.108 185.216 170.429 185.87 169.331 185.87C168.321 185.87 167.807 185.337 167.807 184.22V180.087H166.442V184.562C166.442 186.2 167.35 187.133 168.886 187.133C169.927 187.133 170.714 186.689 171.051 185.902H171.159V187H172.466V180.087ZM177.291 181.116C178.3 181.116 178.96 181.82 178.992 182.906H175.5C175.577 181.827 176.281 181.116 177.291 181.116ZM178.985 185.134C178.731 185.673 178.167 185.972 177.341 185.972C176.25 185.972 175.545 185.204 175.5 183.991V183.915H180.382V183.439C180.382 181.268 179.22 179.954 177.297 179.954C175.348 179.954 174.11 181.357 174.11 183.566C174.11 185.775 175.323 187.133 177.303 187.133C178.884 187.133 179.988 186.372 180.299 185.134H178.985Z" fill="#8F9BB3"/>
<path d="M161.774 231.254H163.107C164.492 231.254 165.349 231.935 165.349 233.026C165.349 234.066 164.44 234.806 163.151 234.806C161.87 234.806 160.991 234.154 160.888 233.129H159.313C159.409 235.019 160.932 236.256 163.151 236.256C165.356 236.256 167.026 234.909 167.026 233.114C167.026 231.701 166.147 230.712 164.704 230.543V230.419C165.869 230.155 166.594 229.218 166.594 227.973C166.594 226.383 165.085 225.175 163.122 225.175C161.005 225.175 159.628 226.354 159.519 228.266H161.079C161.167 227.226 161.921 226.588 163.071 226.588C164.221 226.588 164.975 227.233 164.975 228.214C164.975 229.21 164.191 229.899 163.056 229.899H161.774V231.254ZM172.812 236.256C175.273 236.256 176.708 234.228 176.708 230.719C176.708 227.218 175.251 225.175 172.812 225.175C170.358 225.175 168.901 227.211 168.901 230.705C168.901 234.22 170.344 236.256 172.812 236.256ZM172.812 234.821C171.376 234.821 170.556 233.378 170.556 230.705C170.556 228.061 171.391 226.61 172.812 226.61C174.233 226.61 175.053 228.053 175.053 230.705C175.053 233.385 174.248 234.821 172.812 234.821Z" fill="#8F9BB3"/>
<path d="M165.68 288H167.401L172.001 278.918V277.431H164.984V278.889H170.36V279.013L165.68 288Z" fill="#222B45"/>
<path d="M163.1 340H164.741V329.431H163.107L160.324 331.394V333.071L162.976 331.196H163.1V340ZM172.68 340H174.262V337.957H175.72V336.492H174.262V329.431H171.926C170.043 332.251 168.469 334.705 167.524 336.433V337.957H172.68V340ZM169.099 336.426C170.344 334.265 171.56 332.39 172.607 330.874H172.702V336.528H169.099V336.426Z" fill="#222B45"/>
<path d="M218.341 180.278H218.43L220.398 187H221.737L224.213 177.84H222.734L221.058 184.854H220.969L219.046 177.84H217.726L215.815 184.854H215.726L214.044 177.84H212.565L215.034 187H216.38L218.341 180.278ZM227.926 181.116C228.936 181.116 229.596 181.82 229.627 182.906H226.136C226.212 181.827 226.917 181.116 227.926 181.116ZM229.621 185.134C229.367 185.673 228.802 185.972 227.977 185.972C226.885 185.972 226.181 185.204 226.136 183.991V183.915H231.018V183.439C231.018 181.268 229.856 179.954 227.933 179.954C225.984 179.954 224.746 181.357 224.746 183.566C224.746 185.775 225.958 187.133 227.939 187.133C229.52 187.133 230.624 186.372 230.935 185.134H229.621ZM235.182 187.114C236.134 187.114 236.94 186.664 237.353 185.908H237.46V187H238.768V177.39H237.403V181.186H237.302C236.927 180.424 236.127 179.973 235.182 179.973C233.436 179.973 232.312 181.357 232.312 183.541C232.312 185.73 233.423 187.114 235.182 187.114ZM235.569 181.198C236.711 181.198 237.429 182.106 237.429 183.547C237.429 184.994 236.718 185.889 235.569 185.889C234.414 185.889 233.722 185.007 233.722 183.541C233.722 182.087 234.42 181.198 235.569 181.198Z" fill="#8F9BB3"/>
<path d="M225.051 236H226.692V225.431H225.059L222.275 227.394V229.071L224.927 227.196H225.051V236Z" fill="#222B45"/>
<path d="M224.993 288.256C227.344 288.256 228.97 286.997 228.97 285.166C228.97 283.803 228.076 282.734 226.721 282.478V282.353C227.834 282.067 228.538 281.167 228.538 280.024C228.538 278.354 227.065 277.175 224.993 277.175C222.92 277.175 221.448 278.354 221.448 280.024C221.448 281.159 222.166 282.075 223.264 282.353V282.478C221.909 282.756 221.023 283.825 221.023 285.173C221.023 286.997 222.642 288.256 224.993 288.256ZM224.993 286.894C223.638 286.894 222.7 286.132 222.7 285.034C222.7 283.928 223.638 283.166 224.993 283.166C226.348 283.166 227.285 283.928 227.285 285.034C227.285 286.132 226.348 286.894 224.993 286.894ZM224.993 281.826C223.843 281.826 223.066 281.159 223.066 280.185C223.066 279.196 223.835 278.522 224.993 278.522C226.15 278.522 226.926 279.196 226.926 280.185C226.926 281.159 226.143 281.826 224.993 281.826Z" fill="#222B45"/>
<path d="M221.791 341H223.431V330.431H221.798L219.015 332.394V334.071L221.666 332.196H221.791V341ZM230.169 341.256C232.447 341.256 233.993 339.77 233.993 337.58C233.993 335.5 232.579 334.035 230.572 334.035C229.569 334.035 228.822 334.372 228.338 334.994H228.214L228.492 331.896H233.377V330.431H227.21L226.654 336.481H228.155C228.565 335.8 229.298 335.397 230.206 335.397C231.495 335.397 232.389 336.298 232.389 337.624C232.389 338.942 231.502 339.813 230.184 339.813C229.027 339.813 228.17 339.132 228.045 338.107H226.485C226.581 339.96 228.067 341.256 230.169 341.256Z" fill="#222B45"/>
<path d="M277.894 187V179.135H280.77V177.84H273.59V179.135H276.472V187H277.894ZM282.42 187H283.785V182.963C283.785 181.916 284.477 181.211 285.594 181.211C286.622 181.211 287.136 181.77 287.136 182.874V187H288.501V182.538C288.501 180.894 287.612 179.96 286.057 179.96C285.016 179.96 284.216 180.424 283.88 181.198H283.772V177.39H282.42V187ZM296.391 180.087H295.033V184.131C295.033 185.216 294.354 185.87 293.255 185.87C292.246 185.87 291.732 185.337 291.732 184.22V180.087H290.367V184.562C290.367 186.2 291.275 187.133 292.811 187.133C293.852 187.133 294.639 186.689 294.976 185.902H295.083V187H296.391V180.087Z" fill="#8F9BB3"/>
<g clip-path="url(#clip0_102_24)">
<path d="M264.112 141.588H262.636C262.696 139.776 263.74 138.792 265.456 138.792C267.1 138.792 268.192 139.896 268.192 141.324C268.192 142.284 267.7 142.932 267.196 143.544L265.12 146.04H268.204V147.36H262.36V147.288L266.02 142.704C266.404 142.212 266.68 141.852 266.68 141.336C266.68 140.64 266.2 140.112 265.456 140.112C264.544 140.112 264.148 140.712 264.112 141.588ZM272.601 147.528C270.681 147.528 269.469 146.268 269.469 144.36V141.96C269.469 140.052 270.681 138.792 272.601 138.792C274.521 138.792 275.733 140.052 275.733 141.96V144.36C275.733 146.268 274.521 147.528 272.601 147.528ZM271.005 144.456C271.005 145.428 271.533 146.208 272.601 146.208C273.669 146.208 274.197 145.428 274.197 144.456V141.864C274.197 140.892 273.669 140.112 272.601 140.112C271.533 140.112 271.005 140.892 271.005 141.864V144.456ZM278.503 141.588H277.027C277.087 139.776 278.131 138.792 279.847 138.792C281.491 138.792 282.583 139.896 282.583 141.324C282.583 142.284 282.091 142.932 281.587 143.544L279.511 146.04H282.595V147.36H276.751V147.288L280.411 142.704C280.795 142.212 281.071 141.852 281.071 141.336C281.071 140.64 280.591 140.112 279.847 140.112C278.935 140.112 278.539 140.712 278.503 141.588ZM283.799 145.116H285.275C285.443 145.728 285.899 146.208 286.727 146.208C287.615 146.208 288.167 145.608 288.167 144.816C288.167 144 287.591 143.472 286.583 143.472H284.039L284.783 138.96H288.983V140.292H286.031L285.779 142.152H286.787C288.455 142.152 289.667 143.1 289.667 144.756C289.667 146.364 288.371 147.528 286.751 147.528C285.047 147.528 284.027 146.472 283.799 145.116Z" fill="#8F9BB3"/>
<path d="M241.52 116.6V114.36H251.1V123.88C251.1 126.42 249.18 128.64 246.08 128.64C242.9 128.64 241.24 126.6 241.04 123.82H243.48C243.62 125.22 244.34 126.4 246.04 126.4C247.56 126.4 248.5 125.44 248.5 123.88V116.6H241.52ZM262.037 118.38H264.497V128.36H262.077V126.64C261.497 127.66 260.177 128.6 258.437 128.6C255.477 128.6 253.397 126.24 253.397 123.38C253.397 120.5 255.477 118.14 258.437 118.14C260.177 118.14 261.537 119.04 262.037 120.1V118.38ZM255.917 123.38C255.917 125.12 257.117 126.52 258.917 126.52C260.577 126.52 261.977 125.3 261.977 123.38C261.977 121.46 260.577 120.22 258.917 120.22C257.117 120.22 255.917 121.64 255.917 123.38ZM269.779 122.78V128.36H267.259V118.38H269.699V120.08C270.159 118.92 271.459 118.14 273.019 118.14C275.419 118.14 276.759 119.9 276.759 122.38V128.36H274.239V122.8C274.239 121.38 273.599 120.34 272.099 120.34C270.719 120.34 269.779 121.34 269.779 122.78ZM286.227 124V118.38H288.747V128.36H286.327V126.68C285.827 127.82 284.587 128.6 283.027 128.6C280.627 128.6 279.327 126.84 279.327 124.38V118.38H281.847V123.98C281.847 125.42 282.407 126.44 283.947 126.44C285.387 126.44 286.227 125.44 286.227 124ZM299.517 118.38H301.977V128.36H299.557V126.64C298.977 127.66 297.657 128.6 295.917 128.6C292.957 128.6 290.877 126.24 290.877 123.38C290.877 120.5 292.957 118.14 295.917 118.14C297.657 118.14 299.017 119.04 299.517 120.1V118.38ZM293.397 123.38C293.397 125.12 294.597 126.52 296.397 126.52C298.057 126.52 299.457 125.3 299.457 123.38C299.457 121.46 298.057 120.22 296.397 120.22C294.597 120.22 293.397 121.64 293.397 123.38ZM310.759 118.3V120.8H310.219C308.199 120.8 307.259 121.98 307.259 123.92V128.36H304.739V118.38H307.179V120.54C307.659 118.96 308.999 118.3 310.759 118.3Z" fill="#222B45"/>
</g>
<path d="M281.118 228.595V228.632H283.169V228.588C283.169 227.614 283.872 226.94 284.897 226.94C285.864 226.94 286.553 227.541 286.553 228.39C286.553 229.079 286.179 229.628 284.692 231.078L281.243 234.455V236H288.867V234.162H284.238V234.03L286.26 232.104C288.091 230.382 288.713 229.394 288.713 228.244C288.713 226.427 287.175 225.16 284.971 225.16C282.686 225.16 281.118 226.552 281.118 228.595Z" fill="white"/>
<path d="M284.788 288.256C287.432 288.256 288.977 286.154 288.977 282.573C288.977 281.291 288.757 280.207 288.325 279.357C287.644 277.937 286.414 277.175 284.854 277.175C282.612 277.175 281.023 278.706 281.023 280.866C281.023 282.902 282.488 284.389 284.502 284.389C285.754 284.389 286.765 283.803 287.271 282.785H287.3C287.3 282.785 287.329 282.785 287.336 282.785C287.344 282.785 287.395 282.785 287.395 282.785C287.366 285.334 286.421 286.799 284.802 286.799C283.835 286.799 283.088 286.271 282.832 285.407H281.177C281.499 287.136 282.913 288.256 284.788 288.256ZM284.861 282.998C283.564 282.998 282.656 282.089 282.656 280.808C282.656 279.57 283.616 278.618 284.875 278.618C286.128 278.618 287.087 279.577 287.087 280.844C287.087 282.089 286.15 282.998 284.861 282.998Z" fill="#222B45"/>
<path d="M280.144 340H281.785V329.431H280.151L277.368 331.394V333.071L280.02 331.196H280.144V340ZM288.765 340.256C291.006 340.256 292.595 338.718 292.595 336.565C292.595 334.521 291.13 333.042 289.124 333.042C287.871 333.042 286.86 333.621 286.348 334.639H286.223C286.26 332.097 287.197 330.625 288.823 330.625C289.783 330.625 290.53 331.152 290.793 332.017H292.441C292.119 330.288 290.706 329.175 288.838 329.175C286.194 329.175 284.648 331.27 284.648 334.851C284.648 336.14 284.861 337.217 285.293 338.066C285.981 339.48 287.197 340.256 288.765 340.256ZM288.75 338.813C287.49 338.813 286.531 337.847 286.531 336.587C286.531 335.334 287.468 334.426 288.757 334.426C290.054 334.426 290.969 335.334 290.969 336.616C290.969 337.861 290.01 338.813 288.75 338.813Z" fill="#222B45"/>
<path d="M332.571 187V183.204H336.506V181.947H332.571V179.135H336.868V177.84H331.149V187H332.571ZM338.557 187H339.921V182.918C339.921 181.947 340.651 181.293 341.68 181.293C341.908 181.293 342.327 181.338 342.435 181.376V180.03C342.289 179.992 342.029 179.973 341.832 179.973C340.931 179.973 340.169 180.468 339.972 181.147H339.871V180.087H338.557V187ZM343.812 187H345.171V180.087H343.812V187ZM344.492 178.875C345 178.875 345.374 178.513 345.374 178.043C345.374 177.567 345 177.206 344.492 177.206C343.984 177.206 343.609 177.567 343.609 178.043C343.609 178.513 343.984 178.875 344.492 178.875Z" fill="#8F9BB3"/>
<path d="M335.63 231.254H336.963C338.348 231.254 339.205 231.935 339.205 233.026C339.205 234.066 338.296 234.806 337.007 234.806C335.726 234.806 334.847 234.154 334.744 233.129H333.169C333.265 235.019 334.788 236.256 337.007 236.256C339.212 236.256 340.882 234.909 340.882 233.114C340.882 231.701 340.003 230.712 338.56 230.543V230.419C339.725 230.155 340.45 229.218 340.45 227.973C340.45 226.383 338.941 225.175 336.978 225.175C334.861 225.175 333.484 226.354 333.375 228.266H334.935C335.022 227.226 335.777 226.588 336.927 226.588C338.077 226.588 338.831 227.233 338.831 228.214C338.831 229.21 338.047 229.899 336.912 229.899H335.63V231.254Z" fill="#222B45"/>
<path d="M332.681 288H334.321V277.431H332.688L329.905 279.394V281.071L332.556 279.196H332.681V288ZM341.133 288.256C343.594 288.256 345.029 286.228 345.029 282.719C345.029 279.218 343.572 277.175 341.133 277.175C338.679 277.175 337.222 279.211 337.222 282.705C337.222 286.22 338.665 288.256 341.133 288.256ZM341.133 286.821C339.697 286.821 338.877 285.378 338.877 282.705C338.877 280.061 339.712 278.61 341.133 278.61C342.554 278.61 343.374 280.053 343.374 282.705C343.374 285.385 342.568 286.821 341.133 286.821Z" fill="#222B45"/>
<path d="M331.679 340H333.319V329.431H331.686L328.903 331.394V333.071L331.554 331.196H331.679V340ZM336.806 340H338.527L343.126 330.918V329.431H336.11V330.889H341.486V331.013L336.806 340Z" fill="#222B45"/>
<path d="M378.717 184.537C378.819 186.175 380.184 187.222 382.215 187.222C384.386 187.222 385.744 186.124 385.744 184.372C385.744 182.995 384.97 182.233 383.091 181.795L382.082 181.547C380.888 181.268 380.406 180.894 380.406 180.24C380.406 179.415 381.155 178.875 382.278 178.875C383.345 178.875 384.081 179.402 384.214 180.246H385.598C385.516 178.704 384.157 177.618 382.297 177.618C380.298 177.618 378.965 178.704 378.965 180.335C378.965 181.681 379.72 182.48 381.377 182.868L382.558 183.153C383.77 183.439 384.303 183.858 384.303 184.556C384.303 185.369 383.465 185.959 382.323 185.959C381.098 185.959 380.247 185.407 380.126 184.537H378.717ZM389.68 185.965C388.937 185.965 388.397 185.604 388.397 184.981C388.397 184.372 388.829 184.048 389.781 183.985L391.47 183.877V184.455C391.47 185.312 390.708 185.965 389.68 185.965ZM389.331 187.114C390.238 187.114 390.994 186.721 391.406 186.029H391.514V187H392.828V182.277C392.828 180.817 391.851 179.954 390.118 179.954C388.55 179.954 387.433 180.716 387.293 181.903H388.613C388.766 181.414 389.292 181.135 390.054 181.135C390.987 181.135 391.47 181.547 391.47 182.277V182.874L389.597 182.982C387.953 183.083 387.026 183.801 387.026 185.045C387.026 186.308 387.998 187.114 389.331 187.114ZM395.253 178.412V180.119H394.117V181.268H395.253V185.172C395.253 186.505 395.856 187.038 397.373 187.038C397.64 187.038 397.887 187.006 398.103 186.968V185.832C397.913 185.851 397.805 185.864 397.595 185.864C396.916 185.864 396.618 185.546 396.618 184.823V181.268H398.167V180.119H396.618V178.412H395.253Z" fill="#8F9BB3"/>
<path d="M389.055 237H390.637V234.957H392.094V233.492H390.637V226.431H388.3C386.418 229.251 384.843 231.705 383.898 233.433V234.957H389.055V237ZM385.473 233.426C386.718 231.265 387.934 229.39 388.981 227.874H389.077V233.528H385.473V233.426Z" fill="#222B45"/>
<path d="M384.926 289H386.566V278.431H384.933L382.15 280.394V282.071L384.801 280.196H384.926V289ZM392.177 289H393.817V278.431H392.184L389.401 280.394V282.071L392.052 280.196H392.177V289Z" fill="#222B45"/>
<path d="M383.107 341H384.748V330.431H383.115L380.332 332.394V334.071L382.983 332.196H383.107V341ZM391.618 341.256C393.969 341.256 395.595 339.997 395.595 338.166C395.595 336.803 394.702 335.734 393.347 335.478V335.353C394.46 335.067 395.163 334.167 395.163 333.024C395.163 331.354 393.691 330.175 391.618 330.175C389.545 330.175 388.073 331.354 388.073 333.024C388.073 334.159 388.791 335.075 389.89 335.353V335.478C388.535 335.756 387.648 336.825 387.648 338.173C387.648 339.997 389.267 341.256 391.618 341.256ZM391.618 339.894C390.263 339.894 389.326 339.132 389.326 338.034C389.326 336.928 390.263 336.166 391.618 336.166C392.973 336.166 393.911 336.928 393.911 338.034C393.911 339.132 392.973 339.894 391.618 339.894ZM391.618 334.826C390.468 334.826 389.692 334.159 389.692 333.185C389.692 332.196 390.461 331.522 391.618 331.522C392.775 331.522 393.552 332.196 393.552 333.185C393.552 334.159 392.768 334.826 391.618 334.826Z" fill="#222B45"/>
<path d="M431.717 184.537C431.819 186.175 433.184 187.222 435.215 187.222C437.386 187.222 438.744 186.124 438.744 184.372C438.744 182.995 437.97 182.233 436.091 181.795L435.082 181.547C433.888 181.268 433.406 180.894 433.406 180.24C433.406 179.415 434.155 178.875 435.278 178.875C436.345 178.875 437.081 179.402 437.214 180.246H438.598C438.516 178.704 437.157 177.618 435.297 177.618C433.298 177.618 431.965 178.704 431.965 180.335C431.965 181.681 432.72 182.48 434.377 182.868L435.558 183.153C436.77 183.439 437.303 183.858 437.303 184.556C437.303 185.369 436.465 185.959 435.323 185.959C434.098 185.959 433.247 185.407 433.126 184.537H431.717ZM446.418 180.087H445.06V184.131C445.06 185.216 444.381 185.87 443.283 185.87C442.273 185.87 441.759 185.337 441.759 184.22V180.087H440.395V184.562C440.395 186.2 441.302 187.133 442.838 187.133C443.879 187.133 444.667 186.689 445.003 185.902H445.111V187H446.418V180.087ZM448.405 187H449.77V182.957C449.77 181.877 450.443 181.205 451.541 181.205C452.557 181.205 453.052 181.757 453.052 182.868V187H454.417V182.525C454.417 180.881 453.547 179.954 452.004 179.954C450.963 179.954 450.157 180.417 449.821 181.186H449.719V180.087H448.405V187Z" fill="#8F9BB3"/>
<path d="M443.044 236.256C445.322 236.256 446.867 234.77 446.867 232.58C446.867 230.5 445.454 229.035 443.447 229.035C442.443 229.035 441.696 229.372 441.213 229.994H441.088L441.367 226.896H446.252V225.431H440.085L439.528 231.481H441.03C441.44 230.8 442.172 230.397 443.081 230.397C444.37 230.397 445.263 231.298 445.263 232.624C445.263 233.942 444.377 234.813 443.059 234.813C441.901 234.813 441.044 234.132 440.92 233.107H439.36C439.455 234.96 440.942 236.256 443.044 236.256Z" fill="#222B45"/>
<path d="M437.915 288H439.556V277.431H437.922L435.139 279.394V281.071L437.791 279.196H437.915V288ZM442.544 280.485V280.507H444.097V280.485C444.097 279.357 444.88 278.596 446.045 278.596C447.136 278.596 447.964 279.321 447.964 280.288C447.964 281.064 447.62 281.621 446.206 283.093L442.632 286.813V288H449.751V286.528H444.917V286.403L447.268 284.023C449.041 282.229 449.583 281.313 449.583 280.192C449.583 278.449 448.103 277.175 446.096 277.175C444.016 277.175 442.544 278.537 442.544 280.485Z" fill="#222B45"/>
<path d="M438.144 340H439.785V329.431H438.151L435.368 331.394V333.071L438.02 331.196H438.144V340ZM446.413 340.256C449.057 340.256 450.603 338.154 450.603 334.573C450.603 333.291 450.383 332.207 449.951 331.357C449.27 329.937 448.039 329.175 446.479 329.175C444.238 329.175 442.648 330.706 442.648 332.866C442.648 334.902 444.113 336.389 446.127 336.389C447.38 336.389 448.391 335.803 448.896 334.785H448.925C448.925 334.785 448.955 334.785 448.962 334.785C448.969 334.785 449.021 334.785 449.021 334.785C448.991 337.334 448.046 338.799 446.428 338.799C445.461 338.799 444.714 338.271 444.458 337.407H442.802C443.125 339.136 444.538 340.256 446.413 340.256ZM446.486 334.998C445.19 334.998 444.282 334.089 444.282 332.808C444.282 331.57 445.241 330.618 446.501 330.618C447.753 330.618 448.713 331.577 448.713 332.844C448.713 334.089 447.775 334.998 446.486 334.998Z" fill="#222B45"/>
<path d="M101.548 385.485V385.507H103.101V385.485C103.101 384.357 103.884 383.596 105.049 383.596C106.14 383.596 106.968 384.321 106.968 385.288C106.968 386.064 106.624 386.621 105.21 388.093L101.636 391.813V393H108.755V391.528H103.921V391.403L106.272 389.023C108.044 387.229 108.586 386.313 108.586 385.192C108.586 383.449 107.107 382.175 105.1 382.175C103.02 382.175 101.548 383.537 101.548 385.485ZM114.644 393.256C117.104 393.256 118.54 391.228 118.54 387.719C118.54 384.218 117.083 382.175 114.644 382.175C112.19 382.175 110.732 384.211 110.732 387.705C110.732 391.22 112.175 393.256 114.644 393.256ZM114.644 391.821C113.208 391.821 112.388 390.378 112.388 387.705C112.388 385.061 113.223 383.61 114.644 383.61C116.064 383.61 116.885 385.053 116.885 387.705C116.885 390.385 116.079 391.821 114.644 391.821Z" fill="#222B45"/>
<path d="M161.293 384.485V384.507H162.846V384.485C162.846 383.357 163.629 382.596 164.794 382.596C165.885 382.596 166.713 383.321 166.713 384.288C166.713 385.064 166.369 385.621 164.955 387.093L161.381 390.813V392H168.5V390.528H163.666V390.403L166.017 388.023C167.79 386.229 168.332 385.313 168.332 384.192C168.332 382.449 166.852 381.175 164.845 381.175C162.765 381.175 161.293 382.537 161.293 384.485ZM173.188 392H174.828V381.431H173.195L170.412 383.394V385.071L173.063 383.196H173.188V392Z" fill="#222B45"/>
<path d="M217.282 384.485V384.507H218.835V384.485C218.835 383.357 219.619 382.596 220.783 382.596C221.875 382.596 222.702 383.321 222.702 384.288C222.702 385.064 222.358 385.621 220.944 387.093L217.37 390.813V392H224.489V390.528H219.655V390.403L222.006 388.023C223.779 386.229 224.321 385.313 224.321 384.192C224.321 382.449 222.841 381.175 220.834 381.175C218.754 381.175 217.282 382.537 217.282 384.485ZM226.555 384.485V384.507H228.107V384.485C228.107 383.357 228.891 382.596 230.056 382.596C231.147 382.596 231.975 383.321 231.975 384.288C231.975 385.064 231.63 385.621 230.217 387.093L226.643 390.813V392H233.762V390.528H228.928V390.403L231.279 388.023C233.051 386.229 233.593 385.313 233.593 384.192C233.593 382.449 232.114 381.175 230.107 381.175C228.027 381.175 226.555 382.537 226.555 384.485Z" fill="#222B45"/>
<path d="M277.099 385.485V385.507H278.652V385.485C278.652 384.357 279.436 383.596 280.6 383.596C281.691 383.596 282.519 384.321 282.519 385.288C282.519 386.064 282.175 386.621 280.761 388.093L277.187 391.813V393H284.306V391.528H279.472V391.403L281.823 389.023C283.596 387.229 284.138 386.313 284.138 385.192C284.138 383.449 282.658 382.175 280.651 382.175C278.571 382.175 277.099 383.537 277.099 385.485ZM288.767 388.254H290.1C291.484 388.254 292.341 388.935 292.341 390.026C292.341 391.066 291.433 391.806 290.144 391.806C288.862 391.806 287.983 391.154 287.88 390.129H286.306C286.401 392.019 287.924 393.256 290.144 393.256C292.348 393.256 294.018 391.909 294.018 390.114C294.018 388.701 293.139 387.712 291.696 387.543V387.419C292.861 387.155 293.586 386.218 293.586 384.973C293.586 383.383 292.077 382.175 290.114 382.175C287.998 382.175 286.621 383.354 286.511 385.266H288.071C288.159 384.226 288.913 383.588 290.063 383.588C291.213 383.588 291.967 384.233 291.967 385.214C291.967 386.21 291.184 386.899 290.048 386.899H288.767V388.254Z" fill="#222B45"/>
<path d="M327.467 384.485V384.507H329.02V384.485C329.02 383.357 329.804 382.596 330.968 382.596C332.06 382.596 332.887 383.321 332.887 384.288C332.887 385.064 332.543 385.621 331.129 387.093L327.555 390.813V392H334.674V390.528H329.84V390.403L332.191 388.023C333.964 386.229 334.506 385.313 334.506 384.192C334.506 382.449 333.026 381.175 331.02 381.175C328.939 381.175 327.467 382.537 327.467 384.485ZM341.691 392H343.273V389.957H344.73V388.492H343.273V381.431H340.937C339.054 384.251 337.479 386.705 336.535 388.433V389.957H341.691V392ZM338.109 388.426C339.354 386.265 340.57 384.39 341.618 382.874H341.713V388.528H338.109V388.426Z" fill="#222B45"/>
<path d="M380.158 385.485V385.507H381.71V385.485C381.71 384.357 382.494 383.596 383.659 383.596C384.75 383.596 385.578 384.321 385.578 385.288C385.578 386.064 385.233 386.621 383.82 388.093L380.246 391.813V393H387.365V391.528H382.531V391.403L384.882 389.023C386.654 387.229 387.196 386.313 387.196 385.192C387.196 383.449 385.717 382.175 383.71 382.175C381.63 382.175 380.158 383.537 380.158 385.485ZM393.18 393.256C395.458 393.256 397.003 391.77 397.003 389.58C397.003 387.5 395.59 386.035 393.583 386.035C392.58 386.035 391.833 386.372 391.349 386.994H391.225L391.503 383.896H396.388V382.431H390.221L389.665 388.481H391.166C391.576 387.8 392.309 387.397 393.217 387.397C394.506 387.397 395.399 388.298 395.399 389.624C395.399 390.942 394.513 391.813 393.195 391.813C392.038 391.813 391.181 391.132 391.056 390.107H389.496C389.591 391.96 391.078 393.256 393.18 393.256Z" fill="#222B45"/>
<path d="M433.511 384.485V384.507H435.064V384.485C435.064 383.357 435.848 382.596 437.012 382.596C438.104 382.596 438.931 383.321 438.931 384.288C438.931 385.064 438.587 385.621 437.173 387.093L433.599 390.813V392H440.718V390.528H435.884V390.403L438.235 388.023C440.008 386.229 440.55 385.313 440.55 384.192C440.55 382.449 439.07 381.175 437.063 381.175C434.983 381.175 433.511 382.537 433.511 384.485ZM446.775 392.256C449.017 392.256 450.606 390.718 450.606 388.565C450.606 386.521 449.141 385.042 447.134 385.042C445.882 385.042 444.871 385.621 444.358 386.639H444.234C444.271 384.097 445.208 382.625 446.834 382.625C447.793 382.625 448.541 383.152 448.804 384.017H450.452C450.13 382.288 448.716 381.175 446.849 381.175C444.205 381.175 442.659 383.27 442.659 386.851C442.659 388.14 442.872 389.217 443.304 390.066C443.992 391.48 445.208 392.256 446.775 392.256ZM446.761 390.813C445.501 390.813 444.542 389.847 444.542 388.587C444.542 387.334 445.479 386.426 446.768 386.426C448.064 386.426 448.98 387.334 448.98 388.616C448.98 389.861 448.021 390.813 446.761 390.813Z" fill="#222B45"/>
<path d="M102.546 437.485V437.507H104.099V437.485C104.099 436.357 104.882 435.596 106.047 435.596C107.138 435.596 107.966 436.321 107.966 437.288C107.966 438.064 107.622 438.621 106.208 440.093L102.634 443.813V445H109.753V443.528H104.919V443.403L107.27 441.023C109.042 439.229 109.584 438.313 109.584 437.192C109.584 435.449 108.105 434.175 106.098 434.175C104.018 434.175 102.546 435.537 102.546 437.485ZM112.316 445H114.038L118.637 435.918V434.431H111.621V435.889H116.997V436.013L112.316 445Z" fill="#222B45"/>
<path d="M159.475 436.485V436.507H161.027V436.485C161.027 435.357 161.811 434.596 162.976 434.596C164.067 434.596 164.895 435.321 164.895 436.288C164.895 437.064 164.55 437.621 163.137 439.093L159.562 442.813V444H166.682V442.528H161.848V442.403L164.199 440.023C165.971 438.229 166.513 437.313 166.513 436.192C166.513 434.449 165.034 433.175 163.027 433.175C160.947 433.175 159.475 434.537 159.475 436.485ZM172.629 444.256C174.98 444.256 176.606 442.997 176.606 441.166C176.606 439.803 175.712 438.734 174.357 438.478V438.353C175.471 438.067 176.174 437.167 176.174 436.024C176.174 434.354 174.702 433.175 172.629 433.175C170.556 433.175 169.084 434.354 169.084 436.024C169.084 437.159 169.802 438.075 170.9 438.353V438.478C169.545 438.756 168.659 439.825 168.659 441.173C168.659 442.997 170.278 444.256 172.629 444.256ZM172.629 442.894C171.274 442.894 170.336 442.132 170.336 441.034C170.336 439.928 171.274 439.166 172.629 439.166C173.984 439.166 174.921 439.928 174.921 441.034C174.921 442.132 173.984 442.894 172.629 442.894ZM172.629 437.826C171.479 437.826 170.703 437.159 170.703 436.185C170.703 435.196 171.472 434.522 172.629 434.522C173.786 434.522 174.562 435.196 174.562 436.185C174.562 437.159 173.779 437.826 172.629 437.826Z" fill="#222B45"/>
<path d="M216.511 436.485V436.507H218.064V436.485C218.064 435.357 218.848 434.596 220.012 434.596C221.104 434.596 221.931 435.321 221.931 436.288C221.931 437.064 221.587 437.621 220.173 439.093L216.599 442.813V444H223.718V442.528H218.884V442.403L221.235 440.023C223.008 438.229 223.55 437.313 223.55 436.192C223.55 434.449 222.07 433.175 220.063 433.175C217.983 433.175 216.511 434.537 216.511 436.485ZM229.424 444.256C232.068 444.256 233.613 442.154 233.613 438.573C233.613 437.291 233.394 436.207 232.961 435.357C232.28 433.937 231.05 433.175 229.49 433.175C227.249 433.175 225.659 434.706 225.659 436.866C225.659 438.902 227.124 440.389 229.138 440.389C230.391 440.389 231.401 439.803 231.907 438.785H231.936C231.936 438.785 231.965 438.785 231.973 438.785C231.98 438.785 232.031 438.785 232.031 438.785C232.002 441.334 231.057 442.799 229.438 442.799C228.472 442.799 227.725 442.271 227.468 441.407H225.813C226.135 443.136 227.549 444.256 229.424 444.256ZM229.497 438.998C228.201 438.998 227.292 438.089 227.292 436.808C227.292 435.57 228.252 434.618 229.512 434.618C230.764 434.618 231.724 435.577 231.724 436.844C231.724 438.089 230.786 438.998 229.497 438.998Z" fill="#222B45"/>
<path d="M277.774 439.254H279.107C280.492 439.254 281.349 439.935 281.349 441.026C281.349 442.066 280.44 442.806 279.151 442.806C277.87 442.806 276.991 442.154 276.888 441.129H275.313C275.409 443.019 276.932 444.256 279.151 444.256C281.356 444.256 283.026 442.909 283.026 441.114C283.026 439.701 282.147 438.712 280.704 438.543V438.419C281.869 438.155 282.594 437.218 282.594 435.973C282.594 434.383 281.085 433.175 279.122 433.175C277.005 433.175 275.628 434.354 275.519 436.266H277.079C277.167 435.226 277.921 434.588 279.071 434.588C280.221 434.588 280.975 435.233 280.975 436.214C280.975 437.21 280.191 437.899 279.056 437.899H277.774V439.254ZM288.812 444.256C291.273 444.256 292.708 442.228 292.708 438.719C292.708 435.218 291.251 433.175 288.812 433.175C286.358 433.175 284.901 435.211 284.901 438.705C284.901 442.22 286.344 444.256 288.812 444.256ZM288.812 442.821C287.376 442.821 286.556 441.378 286.556 438.705C286.556 436.061 287.391 434.61 288.812 434.61C290.233 434.61 291.053 436.053 291.053 438.705C291.053 441.385 290.248 442.821 288.812 442.821Z" fill="#222B45"/>
<path d="M332.505 439.254H333.838C335.222 439.254 336.079 439.935 336.079 441.026C336.079 442.066 335.171 442.806 333.882 442.806C332.6 442.806 331.721 442.154 331.619 441.129H330.044C330.139 443.019 331.663 444.256 333.882 444.256C336.086 444.256 337.756 442.909 337.756 441.114C337.756 439.701 336.877 438.712 335.435 438.543V438.419C336.599 438.155 337.324 437.218 337.324 435.973C337.324 434.383 335.815 433.175 333.853 433.175C331.736 433.175 330.359 434.354 330.249 436.266H331.809C331.897 435.226 332.651 434.588 333.801 434.588C334.951 434.588 335.706 435.233 335.706 436.214C335.706 437.21 334.922 437.899 333.787 437.899H332.505V439.254ZM342.371 444H344.011V433.431H342.378L339.595 435.394V437.071L342.246 435.196H342.371V444Z" fill="#222B45"/>
<path d="M388.051 445H389.692V434.431H388.059L385.275 436.394V438.071L387.927 436.196H388.051V445Z" fill="#8F9BB3"/>
<path d="M438.418 436.485V436.507H439.971V436.485C439.971 435.357 440.755 434.596 441.919 434.596C443.011 434.596 443.838 435.321 443.838 436.288C443.838 437.064 443.494 437.621 442.081 439.093L438.506 442.813V444H445.625V442.528H440.792V442.403L443.143 440.023C444.915 438.229 445.457 437.313 445.457 436.192C445.457 434.449 443.978 433.175 441.971 433.175C439.891 433.175 438.418 434.537 438.418 436.485Z" fill="#8F9BB3"/>
<circle cx="225.56" cy="459.4" r="1.48" stroke="#735BF2" stroke-width="1.2"/>
<circle cx="231.8" cy="459.4" r="1.48" stroke="#0095FF" stroke-width="1.2"/>
<circle cx="219.32" cy="459.4" r="1.48" stroke="#00B383" stroke-width="1.2"/>
<rect x="426.06" y="113.64" width="33" height="33" rx="9.5" stroke="#F4F5F7"/>
<rect x="134.5" y="146.64" width="33" height="33" rx="9.5" transform="rotate(180 134.5 146.64)" stroke="#F4F5F7"/>
<g clip-path="url(#clip1_102_24)">
<path d="M447.499 130.14C447.499 130.37 447.403 130.6 447.21 130.776L441.147 136.296C440.761 136.647 440.136 136.647 439.75 136.296C439.365 135.945 439.365 135.376 439.75 135.025L445.116 130.14L439.751 125.256C439.365 124.904 439.365 124.335 439.751 123.984C440.136 123.633 440.762 123.633 441.147 123.984L447.211 129.505C447.403 129.68 447.499 129.91 447.499 130.14V130.14Z" fill="#222B45"/>
</g>
<g clip-path="url(#clip2_102_24)">
<path d="M113.061 130.14C113.061 129.91 113.158 129.68 113.351 129.504L119.414 123.984C119.8 123.633 120.425 123.633 120.81 123.984C121.196 124.335 121.196 124.904 120.81 125.256L115.445 130.14L120.81 135.025C121.196 135.376 121.196 135.945 120.81 136.296C120.425 136.647 119.799 136.647 119.414 136.296L113.35 130.776C113.158 130.6 113.061 130.37 113.061 130.14V130.14Z" fill="#222B45"/>
</g>
<circle cx="336.84" cy="459.4" r="1.48" stroke="#735BF2" stroke-width="1.2"/>
<circle cx="285.88" cy="407.4" r="1.48" stroke="#735BF2" stroke-width="1.2"/>
<circle cx="343.08" cy="459.4" r="1.48" stroke="#0095FF" stroke-width="1.2"/>
<circle cx="330.6" cy="459.4" r="1.48" stroke="#00B383" stroke-width="1.2"/>
<circle cx="225.56" cy="407.4" r="1.48" stroke="#735BF2" stroke-width="1.2"/>
<circle cx="219.32" cy="407.4" r="1.48" stroke="#0095FF" stroke-width="1.2"/>
<circle cx="231.8" cy="407.4" r="1.48" stroke="#00B383" stroke-width="1.2"/>
<circle cx="106.92" cy="407.4" r="1.48" stroke="#735BF2" stroke-width="1.2"/>
<circle cx="113.16" cy="407.4" r="1.48" stroke="#00B383" stroke-width="1.2"/>
<circle cx="223.48" cy="355.4" r="1.48" stroke="#735BF2" stroke-width="1.2"/>
<circle cx="229.72" cy="355.4" r="1.48" stroke="#00B383" stroke-width="1.2"/>
<circle cx="114.28" cy="355.4" r="1.48" stroke="#735BF2" stroke-width="1.2"/>
<circle cx="108.04" cy="355.4" r="1.48" stroke="#0095FF" stroke-width="1.2"/>
<circle cx="225.56" cy="303.4" r="1.48" stroke="#735BF2" stroke-width="1.2"/>
<circle cx="335.8" cy="355.4" r="1.48" stroke="#00B383" stroke-width="1.2"/>
<circle cx="336.84" cy="303.4" r="1.48" stroke="#735BF2" stroke-width="1.2"/>
<circle cx="330.6" cy="303.4" r="1.48" stroke="#0095FF" stroke-width="1.2"/>
<circle cx="343.08" cy="303.4" r="1.48" stroke="#00B383" stroke-width="1.2"/>
<circle cx="339.76" cy="251.4" r="1.48" stroke="#735BF2" stroke-width="1.2"/>
<circle cx="333.52" cy="251.4" r="1.48" stroke="#0095FF" stroke-width="1.2"/>
<circle cx="284.84" cy="251.4" r="1.48" stroke="#735BF2" stroke-width="1.2"/>
<circle cx="291.08" cy="251.4" r="1.48" stroke="#0095FF" stroke-width="1.2"/>
<circle cx="278.6" cy="251.4" r="1.48" stroke="#00B383" stroke-width="1.2"/>
<circle cx="111.16" cy="303.4" r="1.48" stroke="#00B383" stroke-width="1.2"/>
<path opacity="0.5" d="M435.56 114.5H449.56C454.807 114.5 459.06 118.753 459.06 124V138C459.06 143.247 454.807 147.5 449.56 147.5H435.56C430.313 147.5 426.06 143.247 426.06 138V124C426.06 118.753 430.313 114.5 435.56 114.5Z" stroke="#CED3DE"/>
<path opacity="0.5" d="M125 147.5H111C105.753 147.5 101.5 143.247 101.5 138V124C101.5 118.753 105.753 114.5 111 114.5H125C130.247 114.5 134.5 118.753 134.5 124V138C134.5 143.247 130.247 147.5 125 147.5Z" stroke="#CED3DE"/>
<g clip-path="url(#clip3_102_24)">
<path d="M447.499 130.14C447.499 130.37 447.403 130.6 447.21 130.776L441.147 136.296C440.761 136.647 440.136 136.647 439.75 136.296C439.365 135.945 439.365 135.376 439.75 135.025L445.116 130.14L439.751 125.256C439.365 124.904 439.365 124.335 439.751 123.984C440.136 123.633 440.762 123.633 441.147 123.984L447.211 129.505C447.403 129.68 447.499 129.91 447.499 130.14V130.14Z" fill="#222B45"/>
</g>
<g clip-path="url(#clip4_102_24)">
<path d="M113.061 130.14C113.061 129.91 113.158 129.68 113.351 129.504L119.414 123.984C119.8 123.633 120.425 123.633 120.81 123.984C121.196 124.335 121.196 124.904 120.81 125.256L115.445 130.14L120.81 135.025C121.196 135.376 121.196 135.945 120.81 136.296C120.425 136.647 119.799 136.647 119.414 136.296L113.35 130.776C113.158 130.6 113.061 130.37 113.061 130.14V130.14Z" fill="#222B45"/>
</g>
<g clip-path="url(#clip5_102_24)">
<g filter="url(#filter0_d_102_24)">
<path d="M110.838 502.52H442.642C449.732 502.52 455.48 508.34 455.48 515.52V584.52C455.48 591.7 449.732 597.52 442.642 597.52H110.838C103.748 597.52 98 591.7 98 584.52V515.52C98 508.34 103.748 502.52 110.838 502.52Z" fill="white"/>
</g>
<g clip-path="url(#clip6_102_24)">
<path d="M124.128 546.488H122.848C122.096 545.128 120.704 544.216 118.784 544.216C116 544.216 114.08 546.184 114.08 548.92C114.08 551.72 116.048 553.656 118.784 553.656C121.264 553.656 122.72 552.2 123.248 550.344H118.112V549.288H124.608C124.416 552.28 122.224 554.744 118.784 554.744C115.328 554.744 112.8 552.216 112.8 548.92C112.8 545.576 115.28 543.096 118.784 543.096C121.28 543.096 123.184 544.344 124.128 546.488ZM135.286 551.096H128.358C128.55 552.728 129.638 553.752 131.286 553.752C132.518 553.752 133.462 553.16 133.926 552.408H135.11C134.518 553.704 133.078 554.712 131.302 554.712C128.71 554.712 127.126 552.856 127.126 550.584C127.126 548.28 128.822 546.456 131.238 546.456C133.734 546.456 135.286 548.248 135.286 550.504V551.096ZM131.254 547.384C129.686 547.384 128.502 548.472 128.342 550.136H134.118C133.99 548.568 132.95 547.384 131.254 547.384ZM137.672 552.28H138.776C138.952 553.224 139.656 553.784 140.728 553.784C141.752 553.784 142.52 553.24 142.52 552.392C142.52 551.704 142.088 551.336 141.32 551.112L140.04 550.744C138.888 550.424 138.024 549.848 138.024 548.616C138.024 547.32 139.128 546.456 140.632 546.456C142.2 546.456 143.08 547.368 143.256 548.664H142.168C142.088 547.992 141.608 547.384 140.632 547.384C139.752 547.384 139.176 547.848 139.176 548.584C139.176 549.304 139.608 549.528 140.376 549.752L141.8 550.168C143 550.52 143.672 551.192 143.672 552.312C143.672 553.784 142.264 554.712 140.712 554.712C139.16 554.712 137.896 553.928 137.672 552.28ZM153.329 546.648H154.545V554.52H153.345V552.936C152.865 553.816 151.649 554.712 150.049 554.712C147.633 554.712 146.017 552.76 146.017 550.584C146.017 548.408 147.633 546.456 150.049 546.456C151.649 546.456 152.897 547.336 153.329 548.248V546.648ZM147.265 550.584C147.265 552.264 148.433 553.688 150.257 553.688C151.777 553.688 153.297 552.568 153.297 550.584C153.297 548.6 151.777 547.48 150.257 547.48C148.433 547.48 147.265 548.904 147.265 550.584ZM159.356 550.216V554.52H158.108V546.648H159.308V548.184C159.708 547.064 160.764 546.456 162.124 546.456C163.404 546.456 164.332 547.16 164.828 548.296C165.356 547.176 166.412 546.456 167.916 546.456C169.788 546.456 170.972 547.96 170.972 550.008V554.52H169.74V550.248C169.74 548.696 169.1 547.576 167.564 547.576C166.172 547.576 165.164 548.648 165.164 550.152V554.52H163.932V550.248C163.932 548.696 163.292 547.576 161.756 547.576C160.332 547.576 159.356 548.728 159.356 550.216ZM175.108 546.648V544.152H176.356V546.648H178.74V547.688H176.356V552.088C176.356 553.176 176.708 553.656 177.7 553.656C178.068 553.656 178.356 553.592 178.644 553.512V554.52C178.42 554.616 177.876 554.712 177.428 554.712C175.588 554.712 175.108 553.592 175.108 551.688V547.688H173.492V546.648H175.108ZM182.155 546.648V544.152H183.403V546.648H185.787V547.688H183.403V552.088C183.403 553.176 183.755 553.656 184.747 553.656C185.115 553.656 185.403 553.592 185.691 553.512V554.52C185.467 554.616 184.923 554.712 184.475 554.712C182.635 554.712 182.155 553.592 182.155 551.688V547.688H180.539V546.648H182.155ZM192.914 546.584V547.768H192.578C190.85 547.768 189.794 548.936 189.794 550.792V554.52H188.546V546.648H189.746V548.6C190.13 547.176 191.362 546.584 192.914 546.584ZM202.095 546.648H203.311V554.52H202.111V552.936C201.631 553.816 200.415 554.712 198.815 554.712C196.399 554.712 194.783 552.76 194.783 550.584C194.783 548.408 196.399 546.456 198.815 546.456C200.415 546.456 201.663 547.336 202.095 548.248V546.648ZM196.031 550.584C196.031 552.264 197.199 553.688 199.023 553.688C200.543 553.688 202.062 552.568 202.062 550.584C202.062 548.6 200.543 547.48 199.023 547.48C197.199 547.48 196.031 548.904 196.031 550.584ZM206.266 552.28H207.37C207.546 553.224 208.25 553.784 209.322 553.784C210.346 553.784 211.114 553.24 211.114 552.392C211.114 551.704 210.682 551.336 209.914 551.112L208.634 550.744C207.482 550.424 206.618 549.848 206.618 548.616C206.618 547.32 207.722 546.456 209.226 546.456C210.794 546.456 211.674 547.368 211.85 548.664H210.762C210.682 547.992 210.202 547.384 209.226 547.384C208.346 547.384 207.77 547.848 207.77 548.584C207.77 549.304 208.202 549.528 208.97 549.752L210.394 550.168C211.594 550.52 212.266 551.192 212.266 552.312C212.266 553.784 210.858 554.712 209.306 554.712C207.754 554.712 206.49 553.928 206.266 552.28ZM214.547 552.28H215.651C215.827 553.224 216.531 553.784 217.603 553.784C218.627 553.784 219.395 553.24 219.395 552.392C219.395 551.704 218.963 551.336 218.195 551.112L216.915 550.744C215.763 550.424 214.899 549.848 214.899 548.616C214.899 547.32 216.003 546.456 217.507 546.456C219.075 546.456 219.955 547.368 220.131 548.664H219.043C218.963 547.992 218.483 547.384 217.507 547.384C216.627 547.384 216.051 547.848 216.051 548.584C216.051 549.304 216.483 549.528 217.251 549.752L218.675 550.168C219.875 550.52 220.547 551.192 220.547 552.312C220.547 553.784 219.139 554.712 217.587 554.712C216.035 554.712 214.771 553.928 214.547 552.28ZM231.052 551.096H224.124C224.316 552.728 225.404 553.752 227.052 553.752C228.284 553.752 229.228 553.16 229.692 552.408H230.876C230.284 553.704 228.844 554.712 227.068 554.712C224.476 554.712 222.892 552.856 222.892 550.584C222.892 548.28 224.588 546.456 227.004 546.456C229.5 546.456 231.052 548.248 231.052 550.504V551.096ZM227.02 547.384C225.452 547.384 224.268 548.472 224.108 550.136H229.884C229.756 548.568 228.716 547.384 227.02 547.384ZM235.294 550.216V554.52H234.046V546.648H235.246V548.184C235.662 547.064 236.798 546.456 238.19 546.456C240.11 546.456 241.326 547.96 241.326 550.008V554.52H240.078V550.248C240.078 548.696 239.406 547.576 237.806 547.576C236.334 547.576 235.294 548.728 235.294 550.216ZM246.059 552.92V557.848H244.811V546.648H246.011V548.232C246.491 547.352 247.707 546.456 249.307 546.456C251.723 546.456 253.339 548.408 253.339 550.584C253.339 552.76 251.723 554.712 249.307 554.712C247.707 554.712 246.491 553.832 246.059 552.92ZM252.091 550.584C252.091 548.904 250.923 547.48 249.099 547.48C247.579 547.48 246.059 548.6 246.059 550.584C246.059 552.568 247.579 553.688 249.099 553.688C250.923 553.688 252.091 552.264 252.091 550.584ZM257.591 554.52H256.343V542.84H257.591V554.52ZM267.907 546.648H269.123V554.52H267.923V552.936C267.443 553.816 266.227 554.712 264.627 554.712C262.211 554.712 260.595 552.76 260.595 550.584C260.595 548.408 262.211 546.456 264.627 546.456C266.227 546.456 267.475 547.336 267.907 548.248V546.648ZM261.843 550.584C261.843 552.264 263.011 553.688 264.835 553.688C266.355 553.688 267.875 552.568 267.875 550.584C267.875 548.6 266.355 547.48 264.835 547.48C263.011 547.48 261.843 548.904 261.843 550.584ZM273.934 550.216V554.52H272.686V546.648H273.886V548.184C274.302 547.064 275.438 546.456 276.83 546.456C278.75 546.456 279.966 547.96 279.966 550.008V554.52H278.718V550.248C278.718 548.696 278.046 547.576 276.446 547.576C274.974 547.576 273.934 548.728 273.934 550.216ZM296.68 554.52L295.704 552.104H289.848L288.872 554.52H287.544L292.248 543.32H293.304L298.008 554.52H296.68ZM292.776 544.792L290.28 551.032H295.272L292.776 544.792Z" fill="#222B45"/>
</g>
<circle cx="426.5" cy="520.02" r="1.5" fill="#8F9BB3"/>
<circle cx="431.5" cy="520.02" r="1.5" fill="#8F9BB3"/>
<circle cx="436.5" cy="520.02" r="1.5" fill="#8F9BB3"/>
<path fill-rule="evenodd" clip-rule="evenodd" d="M116.896 523.685C115.754 523.685 114.825 524.614 114.825 525.756C114.825 526.899 115.754 527.828 116.896 527.828C118.039 527.828 118.968 526.899 118.968 525.756C118.968 524.614 118.039 523.685 116.896 523.685ZM116.896 520.86C119.601 520.86 121.793 523.052 121.793 525.756C121.793 528.461 119.601 530.653 116.896 530.653C114.192 530.653 112 528.461 112 525.756C112 523.052 114.192 520.86 116.896 520.86Z" fill="#00B383"/>
<path d="M132.006 529.52H133.518V521.065H132.012L129.803 522.612V524.065L131.906 522.588H132.006V529.52ZM139.775 529.731C141.797 529.731 142.998 528.09 142.998 525.295C142.998 522.489 141.779 520.854 139.775 520.854C137.766 520.854 136.547 522.489 136.547 525.284C136.547 528.09 137.748 529.731 139.775 529.731ZM139.775 528.477C138.703 528.477 138.076 527.364 138.076 525.284C138.076 523.221 138.715 522.114 139.775 522.114C140.836 522.114 141.469 523.215 141.469 525.284C141.469 527.364 140.848 528.477 139.775 528.477ZM145.494 527.715C145.494 528.29 145.881 528.688 146.479 528.688C147.076 528.688 147.457 528.29 147.457 527.715C147.457 527.147 147.076 526.749 146.479 526.749C145.881 526.749 145.494 527.147 145.494 527.715ZM145.494 523.297C145.494 523.866 145.881 524.264 146.479 524.264C147.076 524.264 147.457 523.866 147.457 523.297C147.457 522.723 147.076 522.325 146.479 522.325C145.881 522.325 145.494 522.723 145.494 523.297ZM153.182 529.731C155.203 529.731 156.404 528.09 156.404 525.295C156.404 522.489 155.186 520.854 153.182 520.854C151.172 520.854 149.953 522.489 149.953 525.284C149.953 528.09 151.154 529.731 153.182 529.731ZM153.182 528.477C152.109 528.477 151.482 527.364 151.482 525.284C151.482 523.221 152.121 522.114 153.182 522.114C154.242 522.114 154.875 523.215 154.875 525.284C154.875 527.364 154.254 528.477 153.182 528.477ZM161.912 529.731C163.934 529.731 165.135 528.09 165.135 525.295C165.135 522.489 163.916 520.854 161.912 520.854C159.902 520.854 158.684 522.489 158.684 525.284C158.684 528.09 159.885 529.731 161.912 529.731ZM161.912 528.477C160.84 528.477 160.213 527.364 160.213 525.284C160.213 523.221 160.852 522.114 161.912 522.114C162.973 522.114 163.605 523.215 163.605 525.284C163.605 527.364 162.984 528.477 161.912 528.477ZM171.457 526.795V525.43H167.607V526.795H171.457ZM176.092 529.52H177.604V521.065H176.098L173.889 522.612V524.065L175.992 522.588H176.092V529.52ZM182.695 525.77H183.756C184.799 525.77 185.438 526.28 185.438 527.106C185.438 527.903 184.758 528.459 183.791 528.459C182.818 528.459 182.15 527.961 182.086 527.176H180.639C180.715 528.723 181.957 529.731 183.779 529.731C185.619 529.731 186.979 528.653 186.979 527.2C186.979 526.075 186.264 525.29 185.109 525.155V525.055C186.047 524.856 186.639 524.1 186.639 523.11C186.639 521.815 185.414 520.854 183.773 520.854C182.016 520.854 180.879 521.821 180.803 523.374H182.215C182.273 522.577 182.854 522.084 183.727 522.084C184.611 522.084 185.18 522.571 185.18 523.321C185.18 524.077 184.588 524.598 183.727 524.598H182.695V525.77ZM189.51 527.715C189.51 528.29 189.896 528.688 190.494 528.688C191.092 528.688 191.473 528.29 191.473 527.715C191.473 527.147 191.092 526.749 190.494 526.749C189.896 526.749 189.51 527.147 189.51 527.715ZM189.51 523.297C189.51 523.866 189.896 524.264 190.494 524.264C191.092 524.264 191.473 523.866 191.473 523.297C191.473 522.723 191.092 522.325 190.494 522.325C189.896 522.325 189.51 522.723 189.51 523.297ZM197.197 529.731C199.219 529.731 200.42 528.09 200.42 525.295C200.42 522.489 199.201 520.854 197.197 520.854C195.188 520.854 193.969 522.489 193.969 525.284C193.969 528.09 195.17 529.731 197.197 529.731ZM197.197 528.477C196.125 528.477 195.498 527.364 195.498 525.284C195.498 523.221 196.137 522.114 197.197 522.114C198.258 522.114 198.891 523.215 198.891 525.284C198.891 527.364 198.27 528.477 197.197 528.477ZM205.928 529.731C207.949 529.731 209.15 528.09 209.15 525.295C209.15 522.489 207.932 520.854 205.928 520.854C203.918 520.854 202.699 522.489 202.699 525.284C202.699 528.09 203.9 529.731 205.928 529.731ZM205.928 528.477C204.855 528.477 204.229 527.364 204.229 525.284C204.229 523.221 204.867 522.114 205.928 522.114C206.988 522.114 207.621 523.215 207.621 525.284C207.621 527.364 207 528.477 205.928 528.477Z" fill="#8F9BB3"/>
</g>
<g clip-path="url(#clip7_102_24)">
<g filter="url(#filter1_d_102_24)">
<path d="M110.838 613.52H442.642C449.732 613.52 455.48 619.34 455.48 626.52V695.52C455.48 702.7 449.732 708.52 442.642 708.52H110.838C103.748 708.52 98 702.7 98 695.52V626.52C98 619.34 103.748 613.52 110.838 613.52Z" fill="white"/>
</g>
<g clip-path="url(#clip8_102_24)">
<path d="M124.128 657.488H122.848C122.096 656.128 120.704 655.216 118.784 655.216C116 655.216 114.08 657.184 114.08 659.92C114.08 662.72 116.048 664.656 118.784 664.656C121.264 664.656 122.72 663.2 123.248 661.344H118.112V660.288H124.608C124.416 663.28 122.224 665.744 118.784 665.744C115.328 665.744 112.8 663.216 112.8 659.92C112.8 656.576 115.28 654.096 118.784 654.096C121.28 654.096 123.184 655.344 124.128 657.488ZM135.286 662.096H128.358C128.55 663.728 129.638 664.752 131.286 664.752C132.518 664.752 133.462 664.16 133.926 663.408H135.11C134.518 664.704 133.078 665.712 131.302 665.712C128.71 665.712 127.126 663.856 127.126 661.584C127.126 659.28 128.822 657.456 131.238 657.456C133.734 657.456 135.286 659.248 135.286 661.504V662.096ZM131.254 658.384C129.686 658.384 128.502 659.472 128.342 661.136H134.118C133.99 659.568 132.95 658.384 131.254 658.384ZM137.672 663.28H138.776C138.952 664.224 139.656 664.784 140.728 664.784C141.752 664.784 142.52 664.24 142.52 663.392C142.52 662.704 142.088 662.336 141.32 662.112L140.04 661.744C138.888 661.424 138.024 660.848 138.024 659.616C138.024 658.32 139.128 657.456 140.632 657.456C142.2 657.456 143.08 658.368 143.256 659.664H142.168C142.088 658.992 141.608 658.384 140.632 658.384C139.752 658.384 139.176 658.848 139.176 659.584C139.176 660.304 139.608 660.528 140.376 660.752L141.8 661.168C143 661.52 143.672 662.192 143.672 663.312C143.672 664.784 142.264 665.712 140.712 665.712C139.16 665.712 137.896 664.928 137.672 663.28ZM153.329 657.648H154.545V665.52H153.345V663.936C152.865 664.816 151.649 665.712 150.049 665.712C147.633 665.712 146.017 663.76 146.017 661.584C146.017 659.408 147.633 657.456 150.049 657.456C151.649 657.456 152.897 658.336 153.329 659.248V657.648ZM147.265 661.584C147.265 663.264 148.433 664.688 150.257 664.688C151.777 664.688 153.297 663.568 153.297 661.584C153.297 659.6 151.777 658.48 150.257 658.48C148.433 658.48 147.265 659.904 147.265 661.584ZM159.356 661.216V665.52H158.108V657.648H159.308V659.184C159.708 658.064 160.764 657.456 162.124 657.456C163.404 657.456 164.332 658.16 164.828 659.296C165.356 658.176 166.412 657.456 167.916 657.456C169.788 657.456 170.972 658.96 170.972 661.008V665.52H169.74V661.248C169.74 659.696 169.1 658.576 167.564 658.576C166.172 658.576 165.164 659.648 165.164 661.152V665.52H163.932V661.248C163.932 659.696 163.292 658.576 161.756 658.576C160.332 658.576 159.356 659.728 159.356 661.216ZM175.108 657.648V655.152H176.356V657.648H178.74V658.688H176.356V663.088C176.356 664.176 176.708 664.656 177.7 664.656C178.068 664.656 178.356 664.592 178.644 664.512V665.52C178.42 665.616 177.876 665.712 177.428 665.712C175.588 665.712 175.108 664.592 175.108 662.688V658.688H173.492V657.648H175.108ZM182.155 657.648V655.152H183.403V657.648H185.787V658.688H183.403V663.088C183.403 664.176 183.755 664.656 184.747 664.656C185.115 664.656 185.403 664.592 185.691 664.512V665.52C185.467 665.616 184.923 665.712 184.475 665.712C182.635 665.712 182.155 664.592 182.155 662.688V658.688H180.539V657.648H182.155ZM192.914 657.584V658.768H192.578C190.85 658.768 189.794 659.936 189.794 661.792V665.52H188.546V657.648H189.746V659.6C190.13 658.176 191.362 657.584 192.914 657.584ZM202.095 657.648H203.311V665.52H202.111V663.936C201.631 664.816 200.415 665.712 198.815 665.712C196.399 665.712 194.783 663.76 194.783 661.584C194.783 659.408 196.399 657.456 198.815 657.456C200.415 657.456 201.663 658.336 202.095 659.248V657.648ZM196.031 661.584C196.031 663.264 197.199 664.688 199.023 664.688C200.543 664.688 202.062 663.568 202.062 661.584C202.062 659.6 200.543 658.48 199.023 658.48C197.199 658.48 196.031 659.904 196.031 661.584ZM206.266 663.28H207.37C207.546 664.224 208.25 664.784 209.322 664.784C210.346 664.784 211.114 664.24 211.114 663.392C211.114 662.704 210.682 662.336 209.914 662.112L208.634 661.744C207.482 661.424 206.618 660.848 206.618 659.616C206.618 658.32 207.722 657.456 209.226 657.456C210.794 657.456 211.674 658.368 211.85 659.664H210.762C210.682 658.992 210.202 658.384 209.226 658.384C208.346 658.384 207.77 658.848 207.77 659.584C207.77 660.304 208.202 660.528 208.97 660.752L210.394 661.168C211.594 661.52 212.266 662.192 212.266 663.312C212.266 664.784 210.858 665.712 209.306 665.712C207.754 665.712 206.49 664.928 206.266 663.28ZM214.547 663.28H215.651C215.827 664.224 216.531 664.784 217.603 664.784C218.627 664.784 219.395 664.24 219.395 663.392C219.395 662.704 218.963 662.336 218.195 662.112L216.915 661.744C215.763 661.424 214.899 660.848 214.899 659.616C214.899 658.32 216.003 657.456 217.507 657.456C219.075 657.456 219.955 658.368 220.131 659.664H219.043C218.963 658.992 218.483 658.384 217.507 658.384C216.627 658.384 216.051 658.848 216.051 659.584C216.051 660.304 216.483 660.528 217.251 660.752L218.675 661.168C219.875 661.52 220.547 662.192 220.547 663.312C220.547 664.784 219.139 665.712 217.587 665.712C216.035 665.712 214.771 664.928 214.547 663.28ZM231.052 662.096H224.124C224.316 663.728 225.404 664.752 227.052 664.752C228.284 664.752 229.228 664.16 229.692 663.408H230.876C230.284 664.704 228.844 665.712 227.068 665.712C224.476 665.712 222.892 663.856 222.892 661.584C222.892 659.28 224.588 657.456 227.004 657.456C229.5 657.456 231.052 659.248 231.052 661.504V662.096ZM227.02 658.384C225.452 658.384 224.268 659.472 224.108 661.136H229.884C229.756 659.568 228.716 658.384 227.02 658.384ZM235.294 661.216V665.52H234.046V657.648H235.246V659.184C235.662 658.064 236.798 657.456 238.19 657.456C240.11 657.456 241.326 658.96 241.326 661.008V665.52H240.078V661.248C240.078 659.696 239.406 658.576 237.806 658.576C236.334 658.576 235.294 659.728 235.294 661.216ZM246.059 663.92V668.848H244.811V657.648H246.011V659.232C246.491 658.352 247.707 657.456 249.307 657.456C251.723 657.456 253.339 659.408 253.339 661.584C253.339 663.76 251.723 665.712 249.307 665.712C247.707 665.712 246.491 664.832 246.059 663.92ZM252.091 661.584C252.091 659.904 250.923 658.48 249.099 658.48C247.579 658.48 246.059 659.6 246.059 661.584C246.059 663.568 247.579 664.688 249.099 664.688C250.923 664.688 252.091 663.264 252.091 661.584ZM257.591 665.52H256.343V653.84H257.591V665.52ZM267.907 657.648H269.123V665.52H267.923V663.936C267.443 664.816 266.227 665.712 264.627 665.712C262.211 665.712 260.595 663.76 260.595 661.584C260.595 659.408 262.211 657.456 264.627 657.456C266.227 657.456 267.475 658.336 267.907 659.248V657.648ZM261.843 661.584C261.843 663.264 263.011 664.688 264.835 664.688C266.355 664.688 267.875 663.568 267.875 661.584C267.875 659.6 266.355 658.48 264.835 658.48C263.011 658.48 261.843 659.904 261.843 661.584ZM273.934 661.216V665.52H272.686V657.648H273.886V659.184C274.302 658.064 275.438 657.456 276.83 657.456C278.75 657.456 279.966 658.96 279.966 661.008V665.52H278.718V661.248C278.718 659.696 278.046 658.576 276.446 658.576C274.974 658.576 273.934 659.728 273.934 661.216ZM295.704 657.136C295.704 658.32 294.904 659.232 294.056 659.648C295.592 659.92 296.616 661.024 296.616 662.448C296.616 664.208 295.176 665.52 292.936 665.52H288.456V654.32H292.616C294.456 654.32 295.704 655.488 295.704 657.136ZM289.72 664.48H292.68C294.392 664.48 295.352 663.648 295.352 662.352C295.352 661.136 294.328 660.256 292.792 660.256H289.72V664.48ZM289.72 655.344V659.232H292.408C293.64 659.232 294.456 658.336 294.456 657.248C294.456 656.112 293.576 655.344 292.264 655.344H289.72Z" fill="#222B45"/>
</g>
<circle cx="426.5" cy="631.02" r="1.5" fill="#8F9BB3"/>
<circle cx="431.5" cy="631.02" r="1.5" fill="#8F9BB3"/>
<circle cx="436.5" cy="631.02" r="1.5" fill="#8F9BB3"/>
<path fill-rule="evenodd" clip-rule="evenodd" d="M116.896 634.685C115.754 634.685 114.825 635.614 114.825 636.756C114.825 637.899 115.754 638.828 116.896 638.828C118.039 638.828 118.968 637.899 118.968 636.756C118.968 635.614 118.039 634.685 116.896 634.685ZM116.896 631.86C119.601 631.86 121.793 634.052 121.793 636.756C121.793 639.461 119.601 641.653 116.896 641.653C114.192 641.653 112 639.461 112 636.756C112 634.052 114.192 631.86 116.896 631.86Z" fill="#A6C4A1"/>
<path d="M134.294 640.52V632.12H135.254V640.52H134.294ZM139.023 637.292V640.52H138.087V634.616H138.987V635.768C139.287 634.928 140.079 634.472 141.099 634.472C142.059 634.472 142.755 635 143.127 635.852C143.523 635.012 144.315 634.472 145.443 634.472C146.847 634.472 147.735 635.6 147.735 637.136V640.52H146.811V637.316C146.811 636.152 146.331 635.312 145.179 635.312C144.135 635.312 143.379 636.116 143.379 637.244V640.52H142.455V637.316C142.455 636.152 141.975 635.312 140.823 635.312C139.755 635.312 139.023 636.176 139.023 637.292ZM153.582 640.472L158.022 632.948H153.81V632.12H159.498V632.168L155.034 639.692H159.594V640.52H153.582V640.472ZM167.353 637.952H162.157C162.301 639.176 163.117 639.944 164.353 639.944C165.277 639.944 165.985 639.5 166.333 638.936H167.221C166.777 639.908 165.697 640.664 164.365 640.664C162.421 640.664 161.233 639.272 161.233 637.568C161.233 635.84 162.505 634.472 164.317 634.472C166.189 634.472 167.353 635.816 167.353 637.508V637.952ZM164.329 635.168C163.153 635.168 162.265 635.984 162.145 637.232H166.477C166.381 636.056 165.601 635.168 164.329 635.168ZM170.571 640.52H169.635V634.616H170.571V640.52ZM169.491 632.588C169.491 632.252 169.743 631.988 170.103 631.988C170.463 631.988 170.715 632.252 170.715 632.588C170.715 632.924 170.463 633.188 170.103 633.188C169.743 633.188 169.491 632.924 169.491 632.588ZM173.77 634.616V632.744H174.706V634.616H176.494V635.396H174.706V638.696C174.706 639.512 174.97 639.872 175.714 639.872C175.99 639.872 176.206 639.824 176.422 639.764V640.52C176.254 640.592 175.846 640.664 175.51 640.664C174.13 640.664 173.77 639.824 173.77 638.396V635.396H172.558V634.616H173.77ZM179.5 639.32V643.016H178.564V634.616H179.464V635.804C179.824 635.144 180.736 634.472 181.936 634.472C183.748 634.472 184.96 635.936 184.96 637.568C184.96 639.2 183.748 640.664 181.936 640.664C180.736 640.664 179.824 640.004 179.5 639.32ZM184.024 637.568C184.024 636.308 183.148 635.24 181.78 635.24C180.64 635.24 179.5 636.08 179.5 637.568C179.5 639.056 180.64 639.896 181.78 639.896C183.148 639.896 184.024 638.828 184.024 637.568ZM188.148 640.52H187.212V631.76H188.148V640.52ZM195.885 634.616H196.797V640.52H195.897V639.332C195.537 639.992 194.625 640.664 193.425 640.664C191.613 640.664 190.401 639.2 190.401 637.568C190.401 635.936 191.613 634.472 193.425 634.472C194.625 634.472 195.561 635.132 195.885 635.816V634.616ZM191.337 637.568C191.337 638.828 192.213 639.896 193.581 639.896C194.721 639.896 195.861 639.056 195.861 637.568C195.861 636.08 194.721 635.24 193.581 635.24C192.213 635.24 191.337 636.308 191.337 637.568ZM200.406 637.292V640.52H199.47V634.616H200.37V635.768C200.682 634.928 201.534 634.472 202.578 634.472C204.018 634.472 204.93 635.6 204.93 637.136V640.52H203.994V637.316C203.994 636.152 203.49 635.312 202.29 635.312C201.186 635.312 200.406 636.176 200.406 637.292Z" fill="#8F9BB3"/>
</g>
<path opacity="0.5" d="M259.5 482H285.5" stroke="#CED3DE" stroke-width="4" stroke-linecap="round"/>
<g filter="url(#filter2_d_102_24)">
<g clip-path="url(#clip9_102_24)">
<g filter="url(#filter3_d_102_24)">
<path d="M20.8377 480H352.642C359.732 480 365.48 485.82 365.48 493V562C365.48 569.18 359.732 575 352.642 575H20.8377C13.7476 575 8 569.18 8 562V493C8 485.82 13.7476 480 20.8377 480Z" fill="white"/>
</g>
<g clip-path="url(#clip10_102_24)">
<path d="M34.128 523.968H32.848C32.096 522.608 30.704 521.696 28.784 521.696C26 521.696 24.08 523.664 24.08 526.4C24.08 529.2 26.048 531.136 28.784 531.136C31.264 531.136 32.72 529.68 33.248 527.824H28.112V526.768H34.608C34.416 529.76 32.224 532.224 28.784 532.224C25.328 532.224 22.8 529.696 22.8 526.4C22.8 523.056 25.28 520.576 28.784 520.576C31.28 520.576 33.184 521.824 34.128 523.968ZM45.2863 528.576H38.3583C38.5503 530.208 39.6383 531.232 41.2863 531.232C42.5183 531.232 43.4623 530.64 43.9263 529.888H45.1103C44.5183 531.184 43.0783 532.192 41.3023 532.192C38.7103 532.192 37.1263 530.336 37.1263 528.064C37.1263 525.76 38.8223 523.936 41.2383 523.936C43.7343 523.936 45.2863 525.728 45.2863 527.984V528.576ZM41.2543 524.864C39.6863 524.864 38.5023 525.952 38.3423 527.616H44.1183C43.9903 526.048 42.9503 524.864 41.2543 524.864ZM47.672 529.76H48.776C48.952 530.704 49.656 531.264 50.728 531.264C51.752 531.264 52.52 530.72 52.52 529.872C52.52 529.184 52.088 528.816 51.32 528.592L50.04 528.224C48.888 527.904 48.024 527.328 48.024 526.096C48.024 524.8 49.128 523.936 50.632 523.936C52.2 523.936 53.08 524.848 53.256 526.144H52.168C52.088 525.472 51.608 524.864 50.632 524.864C49.752 524.864 49.176 525.328 49.176 526.064C49.176 526.784 49.608 527.008 50.376 527.232L51.8 527.648C53 528 53.672 528.672 53.672 529.792C53.672 531.264 52.264 532.192 50.712 532.192C49.16 532.192 47.896 531.408 47.672 529.76ZM63.3289 524.128H64.5449V532H63.3449V530.416C62.8649 531.296 61.6489 532.192 60.0489 532.192C57.6329 532.192 56.0169 530.24 56.0169 528.064C56.0169 525.888 57.6329 523.936 60.0489 523.936C61.6489 523.936 62.8969 524.816 63.3289 525.728V524.128ZM57.2649 528.064C57.2649 529.744 58.4329 531.168 60.2569 531.168C61.7769 531.168 63.2969 530.048 63.2969 528.064C63.2969 526.08 61.7769 524.96 60.2569 524.96C58.4329 524.96 57.2649 526.384 57.2649 528.064ZM69.3561 527.696V532H68.1081V524.128H69.3081V525.664C69.7081 524.544 70.7641 523.936 72.1241 523.936C73.4041 523.936 74.3321 524.64 74.8281 525.776C75.3561 524.656 76.4121 523.936 77.9161 523.936C79.7881 523.936 80.9721 525.44 80.9721 527.488V532H79.7401V527.728C79.7401 526.176 79.1001 525.056 77.5641 525.056C76.1721 525.056 75.1641 526.128 75.1641 527.632V532H73.9321V527.728C73.9321 526.176 73.2921 525.056 71.7561 525.056C70.3321 525.056 69.3561 526.208 69.3561 527.696ZM85.1079 524.128V521.632H86.3559V524.128H88.7399V525.168H86.3559V529.568C86.3559 530.656 86.7079 531.136 87.6999 531.136C88.0679 531.136 88.3559 531.072 88.6439 530.992V532C88.4199 532.096 87.8759 532.192 87.4279 532.192C85.5879 532.192 85.1079 531.072 85.1079 529.168V525.168H83.4919V524.128H85.1079ZM92.1548 524.128V521.632H93.4028V524.128H95.7868V525.168H93.4028V529.568C93.4028 530.656 93.7548 531.136 94.7468 531.136C95.1148 531.136 95.4028 531.072 95.6908 530.992V532C95.4668 532.096 94.9227 532.192 94.4748 532.192C92.6348 532.192 92.1548 531.072 92.1548 529.168V525.168H90.5388V524.128H92.1548ZM102.914 524.064V525.248H102.578C100.85 525.248 99.7936 526.416 99.7936 528.272V532H98.5456V524.128H99.7456V526.08C100.13 524.656 101.362 524.064 102.914 524.064ZM112.095 524.128H113.311V532H112.111V530.416C111.631 531.296 110.415 532.192 108.815 532.192C106.399 532.192 104.783 530.24 104.783 528.064C104.783 525.888 106.399 523.936 108.815 523.936C110.415 523.936 111.663 524.816 112.095 525.728V524.128ZM106.031 528.064C106.031 529.744 107.199 531.168 109.023 531.168C110.543 531.168 112.062 530.048 112.062 528.064C112.062 526.08 110.543 524.96 109.023 524.96C107.199 524.96 106.031 526.384 106.031 528.064ZM116.266 529.76H117.37C117.546 530.704 118.25 531.264 119.322 531.264C120.346 531.264 121.114 530.72 121.114 529.872C121.114 529.184 120.682 528.816 119.914 528.592L118.634 528.224C117.482 527.904 116.618 527.328 116.618 526.096C116.618 524.8 117.722 523.936 119.226 523.936C120.794 523.936 121.674 524.848 121.85 526.144H120.762C120.682 525.472 120.202 524.864 119.226 524.864C118.346 524.864 117.77 525.328 117.77 526.064C117.77 526.784 118.202 527.008 118.97 527.232L120.394 527.648C121.594 528 122.266 528.672 122.266 529.792C122.266 531.264 120.858 532.192 119.306 532.192C117.754 532.192 116.49 531.408 116.266 529.76ZM124.547 529.76H125.651C125.827 530.704 126.531 531.264 127.603 531.264C128.627 531.264 129.395 530.72 129.395 529.872C129.395 529.184 128.963 528.816 128.195 528.592L126.915 528.224C125.763 527.904 124.899 527.328 124.899 526.096C124.899 524.8 126.003 523.936 127.507 523.936C129.075 523.936 129.955 524.848 130.131 526.144H129.043C128.963 525.472 128.483 524.864 127.507 524.864C126.627 524.864 126.051 525.328 126.051 526.064C126.051 526.784 126.483 527.008 127.251 527.232L128.675 527.648C129.875 528 130.547 528.672 130.547 529.792C130.547 531.264 129.139 532.192 127.587 532.192C126.035 532.192 124.771 531.408 124.547 529.76ZM141.052 528.576H134.124C134.316 530.208 135.404 531.232 137.052 531.232C138.284 531.232 139.228 530.64 139.692 529.888H140.876C140.284 531.184 138.844 532.192 137.068 532.192C134.476 532.192 132.892 530.336 132.892 528.064C132.892 525.76 134.588 523.936 137.004 523.936C139.5 523.936 141.052 525.728 141.052 527.984V528.576ZM137.02 524.864C135.452 524.864 134.268 525.952 134.108 527.616H139.884C139.756 526.048 138.716 524.864 137.02 524.864ZM145.294 527.696V532H144.046V524.128H145.246V525.664C145.662 524.544 146.798 523.936 148.19 523.936C150.11 523.936 151.326 525.44 151.326 527.488V532H150.078V527.728C150.078 526.176 149.406 525.056 147.806 525.056C146.334 525.056 145.294 526.208 145.294 527.696ZM156.059 530.4V535.328H154.811V524.128H156.011V525.712C156.491 524.832 157.707 523.936 159.307 523.936C161.723 523.936 163.339 525.888 163.339 528.064C163.339 530.24 161.723 532.192 159.307 532.192C157.707 532.192 156.491 531.312 156.059 530.4ZM162.091 528.064C162.091 526.384 160.923 524.96 159.099 524.96C157.579 524.96 156.059 526.08 156.059 528.064C156.059 530.048 157.579 531.168 159.099 531.168C160.923 531.168 162.091 529.744 162.091 528.064ZM167.591 532H166.343V520.32H167.591V532ZM177.907 524.128H179.123V532H177.923V530.416C177.443 531.296 176.227 532.192 174.627 532.192C172.211 532.192 170.595 530.24 170.595 528.064C170.595 525.888 172.211 523.936 174.627 523.936C176.227 523.936 177.475 524.816 177.907 525.728V524.128ZM171.843 528.064C171.843 529.744 173.011 531.168 174.835 531.168C176.355 531.168 177.875 530.048 177.875 528.064C177.875 526.08 176.355 524.96 174.835 524.96C173.011 524.96 171.843 526.384 171.843 528.064ZM183.934 527.696V532H182.686V524.128H183.886V525.664C184.302 524.544 185.438 523.936 186.83 523.936C188.75 523.936 189.966 525.44 189.966 527.488V532H188.718V527.728C188.718 526.176 188.046 525.056 186.446 525.056C184.974 525.056 183.934 526.208 183.934 527.696ZM206.68 532L205.704 529.584H199.848L198.872 532H197.544L202.248 520.8H203.304L208.008 532H206.68ZM202.776 522.272L200.28 528.512H205.272L202.776 522.272Z" fill="#222B45"/>
</g>
<circle cx="336.5" cy="497.5" r="1.5" fill="#8F9BB3"/>
<circle cx="341.5" cy="497.5" r="1.5" fill="#8F9BB3"/>
<circle cx="346.5" cy="497.5" r="1.5" fill="#8F9BB3"/>
<path fill-rule="evenodd" clip-rule="evenodd" d="M26.8964 501.165C25.7542 501.165 24.8249 502.094 24.8249 503.236C24.8249 504.379 25.7542 505.308 26.8964 505.308C28.0387 505.308 28.968 504.379 28.968 503.236C28.968 502.094 28.0387 501.165 26.8964 501.165M26.8964 498.34C29.6006 498.34 31.7928 500.532 31.7928 503.236C31.7928 505.941 29.6006 508.133 26.8964 508.133C24.1922 508.133 22 505.941 22 503.236C22 500.532 24.1922 498.34 26.8964 498.34Z" fill="#A6C4A1"/>
<path d="M44.294 507V498.6H45.254V507H44.294ZM49.023 503.772V507H48.087V501.096H48.987V502.248C49.287 501.408 50.079 500.952 51.099 500.952C52.059 500.952 52.755 501.48 53.127 502.332C53.523 501.492 54.315 500.952 55.443 500.952C56.847 500.952 57.735 502.08 57.735 503.616V507H56.811V503.796C56.811 502.632 56.331 501.792 55.179 501.792C54.135 501.792 53.379 502.596 53.379 503.724V507H52.455V503.796C52.455 502.632 51.975 501.792 50.823 501.792C49.755 501.792 49.023 502.656 49.023 503.772ZM63.5816 506.952L68.0216 499.428H63.8096V498.6H69.4976V498.648L65.0336 506.172H69.5936V507H63.5816V506.952ZM77.3534 504.432H72.1574C72.3014 505.656 73.1174 506.424 74.3534 506.424C75.2774 506.424 75.9854 505.98 76.3334 505.416H77.2214C76.7774 506.388 75.6974 507.144 74.3654 507.144C72.4214 507.144 71.2334 505.752 71.2334 504.048C71.2334 502.32 72.5054 500.952 74.3174 500.952C76.1894 500.952 77.3534 502.296 77.3534 503.988V504.432ZM74.3294 501.648C73.1534 501.648 72.2654 502.464 72.1454 503.712H76.4774C76.3814 502.536 75.6014 501.648 74.3294 501.648ZM80.5707 507H79.6347V501.096H80.5707V507ZM79.4907 499.068C79.4907 498.732 79.7427 498.468 80.1027 498.468C80.4627 498.468 80.7147 498.732 80.7147 499.068C80.7147 499.404 80.4627 499.668 80.1027 499.668C79.7427 499.668 79.4907 499.404 79.4907 499.068ZM83.7704 501.096V499.224H84.7064V501.096H86.4944V501.876H84.7064V505.176C84.7064 505.992 84.9704 506.352 85.7144 506.352C85.9904 506.352 86.2064 506.304 86.4224 506.244V507C86.2544 507.072 85.8464 507.144 85.5104 507.144C84.1304 507.144 83.7704 506.304 83.7704 504.876V501.876H82.5584V501.096H83.7704ZM89.4995 505.8V509.496H88.5635V501.096H89.4635V502.284C89.8235 501.624 90.7355 500.952 91.9355 500.952C93.7475 500.952 94.9595 502.416 94.9595 504.048C94.9595 505.68 93.7475 507.144 91.9355 507.144C90.7355 507.144 89.8235 506.484 89.4995 505.8ZM94.0235 504.048C94.0235 502.788 93.1475 501.72 91.7795 501.72C90.6395 501.72 89.4995 502.56 89.4995 504.048C89.4995 505.536 90.6395 506.376 91.7795 506.376C93.1475 506.376 94.0235 505.308 94.0235 504.048ZM98.148 507H97.212V498.24H98.148V507ZM105.885 501.096H106.797V507H105.897V505.812C105.537 506.472 104.625 507.144 103.425 507.144C101.613 507.144 100.401 505.68 100.401 504.048C100.401 502.416 101.613 500.952 103.425 500.952C104.625 500.952 105.561 501.612 105.885 502.296V501.096ZM101.337 504.048C101.337 505.308 102.213 506.376 103.581 506.376C104.721 506.376 105.861 505.536 105.861 504.048C105.861 502.56 104.721 501.72 103.581 501.72C102.213 501.72 101.337 502.788 101.337 504.048ZM110.406 503.772V507H109.47V501.096H110.37V502.248C110.682 501.408 111.534 500.952 112.578 500.952C114.018 500.952 114.93 502.08 114.93 503.616V507H113.994V503.796C113.994 502.632 113.49 501.792 112.29 501.792C111.186 501.792 110.406 502.656 110.406 503.772Z" fill="#8F9BB3"/>
</g>
</g>
<defs>
<filter id="filter0_d_102_24" x="68" y="475.52" width="417.48" height="155" filterUnits="userSpaceOnUse" color-interpolation-filters="sRGB">
<feFlood flood-opacity="0" result="BackgroundImageFix"/>
<feColorMatrix in="SourceAlpha" type="matrix" values="0 0 0 0 0 0 0 0 0 0 0 0 0 0 0 0 0 0 127 0" result="hardAlpha"/>
<feOffset dy="3"/>
<feGaussianBlur stdDeviation="15"/>
<feColorMatrix type="matrix" values="0 0 0 0 0 0 0 0 0 0 0 0 0 0 0 0 0 0 0.0588235 0"/>
<feBlend mode="normal" in2="BackgroundImageFix" result="effect1_dropShadow_102_24"/>
<feBlend mode="normal" in="SourceGraphic" in2="effect1_dropShadow_102_24" result="shape"/>
</filter>
<filter id="filter1_d_102_24" x="68" y="586.52" width="417.48" height="155" filterUnits="userSpaceOnUse" color-interpolation-filters="sRGB">
<feFlood flood-opacity="0" result="BackgroundImageFix"/>
<feColorMatrix in="SourceAlpha" type="matrix" values="0 0 0 0 0 0 0 0 0 0 0 0 0 0 0 0 0 0 127 0" result="hardAlpha"/>
<feOffset dy="3"/>
<feGaussianBlur stdDeviation="15"/>
<feColorMatrix type="matrix" values="0 0 0 0 0 0 0 0 0 0 0 0 0 0 0 0 0 0 0.0588235 0"/>
<feBlend mode="normal" in2="BackgroundImageFix" result="effect1_dropShadow_102_24"/>
<feBlend mode="normal" in="SourceGraphic" in2="effect1_dropShadow_102_24" result="shape"/>
</filter>
<filter id="filter2_d_102_24" x="0" y="469" width="403.48" height="141" filterUnits="userSpaceOnUse" color-interpolation-filters="sRGB">
<feFlood flood-opacity="0" result="BackgroundImageFix"/>
<feColorMatrix in="SourceAlpha" type="matrix" values="0 0 0 0 0 0 0 0 0 0 0 0 0 0 0 0 0 0 127 0" result="hardAlpha"/>
<feOffset dx="15" dy="12"/>
<feGaussianBlur stdDeviation="11.5"/>
<feComposite in2="hardAlpha" operator="out"/>
<feColorMatrix type="matrix" values="0 0 0 0 0 0 0 0 0 0 0 0 0 0 0 0 0 0 0.25 0"/>
<feBlend mode="normal" in2="BackgroundImageFix" result="effect1_dropShadow_102_24"/>
<feBlend mode="normal" in="SourceGraphic" in2="effect1_dropShadow_102_24" result="shape"/>
</filter>
<filter id="filter3_d_102_24" x="-22" y="453" width="417.48" height="155" filterUnits="userSpaceOnUse" color-interpolation-filters="sRGB">
<feFlood flood-opacity="0" result="BackgroundImageFix"/>
<feColorMatrix in="SourceAlpha" type="matrix" values="0 0 0 0 0 0 0 0 0 0 0 0 0 0 0 0 0 0 127 0" result="hardAlpha"/>
<feOffset dy="3"/>
<feGaussianBlur stdDeviation="15"/>
<feColorMatrix type="matrix" values="0 0 0 0 0 0 0 0 0 0 0 0 0 0 0 0 0 0 0.0588235 0"/>
<feBlend mode="normal" in2="BackgroundImageFix" result="effect1_dropShadow_102_24"/>
<feBlend mode="normal" in="SourceGraphic" in2="effect1_dropShadow_102_24" result="shape"/>
</filter>
<clipPath id="clip0_102_24">
<rect width="110" height="47.4258" fill="white" transform="translate(223 114.36)"/>
</clipPath>
<clipPath id="clip1_102_24">
<rect width="12.8388" height="8.03819" fill="white" transform="matrix(0 -1 1 0 439.461 136.56)"/>
</clipPath>
<clipPath id="clip2_102_24">
<rect width="12.8388" height="8.03819" fill="white" transform="matrix(0 1 -1 0 121.1 123.721)"/>
</clipPath>
<clipPath id="clip3_102_24">
<rect width="12.8388" height="8.03819" fill="white" transform="matrix(0 -1 1 0 439.461 136.56)"/>
</clipPath>
<clipPath id="clip4_102_24">
<rect width="12.8388" height="8.03819" fill="white" transform="matrix(0 1 -1 0 121.1 123.721)"/>
</clipPath>
<clipPath id="clip5_102_24">
<rect width="357.48" height="95" fill="white" transform="translate(98 502.52)"/>
</clipPath>
<clipPath id="clip6_102_24">
<rect width="293" height="19" fill="white" transform="translate(112 540.52)"/>
</clipPath>
<clipPath id="clip7_102_24">
<rect width="357.48" height="95" fill="white" transform="translate(98 613.52)"/>
</clipPath>
<clipPath id="clip8_102_24">
<rect width="274" height="19" fill="white" transform="translate(112 651.52)"/>
</clipPath>
<clipPath id="clip9_102_24">
<rect x="8" y="480" width="357.48" height="95" rx="12" fill="white"/>
</clipPath>
<clipPath id="clip10_102_24">
<rect width="293" height="19" fill="white" transform="translate(22 518)"/>
</clipPath>
</defs>
</svg>
