<svg width="24" height="24" viewBox="0 0 24 24" fill="none" xmlns="http://www.w3.org/2000/svg">
<path fill-rule="evenodd" clip-rule="evenodd" d="M1 12C1 5.92487 5.92487 1 12 1C18.0751 1 23 5.92487 23 12C23 18.0751 18.0751 23 12 23C5.92487 23 1 18.0751 1 12ZM9.52814 7.11833C9.8533 6.94431 10.2478 6.96338 10.5547 7.16795L16.5547 11.168C16.8329 11.3534 17 11.6656 17 12C17 12.3344 16.8329 12.6466 16.5547 12.8321L10.5547 16.8321C10.2478 17.0366 9.8533 17.0557 9.52814 16.8817C9.20298 16.7077 9 16.3688 9 16V8C9 7.63121 9.20298 7.29235 9.52814 7.11833Z" fill="white"/>
</svg>
