<?xml version="1.0" encoding="utf-8"?>
<!-- Generator: Adobe Illustrator 15.0.0, SVG Export Plug-In . SVG Version: 6.00 Build 0)  -->
<!DOCTYPE svg PUBLIC "-//W3C//DTD SVG 1.1//EN" "http://www.w3.org/Graphics/SVG/1.1/DTD/svg11.dtd">
<svg version="1.1" id="Ebene_1" xmlns="http://www.w3.org/2000/svg" xmlns:xlink="http://www.w3.org/1999/xlink" x="0px" y="0px"
	 width="224px" height="39px" viewBox="0 0 224 39" enable-background="new 0 0 224 39" xml:space="preserve">
<g>
	<path fill-rule="evenodd" clip-rule="evenodd" fill="#E3051B" d="M18.927,14.362l-0.014,5.876h8.805l0.004-5.885
		c0-2.429-1.963-4.393-4.402-4.393C20.89,9.961,18.927,11.934,18.927,14.362z M10.116,14.362c0-7.294,5.912-13.204,13.203-13.204
		c7.297,0,13.205,5.91,13.205,13.204v5.876H10.116V14.362z"/>
	<polygon fill="#1D1D1B" points="1.313,20.238 10.112,20.238 10.112,29.039 18.913,29.039 18.913,20.238 27.718,20.238 
		27.718,37.847 1.313,37.847 	"/>
	<g>
		<path fill-rule="evenodd" clip-rule="evenodd" fill="#1D1D1B" d="M57.165,36.966c1.236,0.785,3.049,1.129,4.52,1.129
			c3.664,0,6.404-2.6,6.404-6.609c0-3.285-1.302-4.38-5.549-7.5c-2.05-1.504-3.283-2.43-3.283-4.791
			c0-2.773,2.463-3.492,3.828-3.492c1.783,0,2.881,0.613,3.808,1.162l0.103-2.396c-0.549-0.205-1.855-0.754-3.766-0.754
			c-1.404,0-6.234,0.483-6.234,5.785c0,2.705,0.994,4.216,4.312,6.478c2.874,1.91,4.522,3.041,4.522,5.818
			c0,0.887-0.48,4.31-4.314,4.31c-0.611,0-2.564-0.132-4.213-1.608L57.165,36.966z"/>
		<path fill-rule="evenodd" clip-rule="evenodd" fill="#1D1D1B" d="M81.78,20.769c-0.818-0.344-1.852-0.615-3.258-0.615
			c-4.857,0-7.221,3.702-7.221,9.039c0,6.025,3.533,8.902,7.26,8.902c1.234,0,2.531-0.27,3.387-0.65l-0.168-2.264
			c-0.579,0.688-2.157,0.925-2.947,0.925c-1.879,0-5.406-1.093-5.406-7.495c0-4.625,2.43-6.467,5.096-6.467
			c1.031,0,2.369,0.234,3.154,0.887L81.78,20.769z"/>
		<path fill-rule="evenodd" clip-rule="evenodd" fill="#1D1D1B" d="M85.437,37.856h1.986V27c0-2.701,1.538-5,3.977-5
			c3.25,0,3.25,2.879,3.25,4.08v11.776h1.984V26.144c0-1.162,0-5.99-4.826-5.99c-2.775,0-3.975,2.05-4.314,2.808h-0.07V12.172
			h-1.986V37.856z"/>
		<path fill-rule="evenodd" clip-rule="evenodd" fill="#1D1D1B" d="M102.522,16.83h1.98v-3.354h-1.98V16.83z M107.661,16.83h1.98
			v-3.354h-1.98V16.83z M111.667,20.39h-1.988v10.861c0,2.701-1.539,4.996-3.975,4.996c-3.252,0-3.252-2.879-3.252-4.076V20.39
			h-1.984v12.191c0,2.779,1.025,5.514,4.828,5.514c2.912,0,4.244-2.053,4.451-2.809h0.07c0.033,1.266,0.063,1.783,0.137,2.569h1.846
			c-0.033-1.813-0.133-3.595-0.133-5.407V20.39z"/>
		<path fill-rule="evenodd" clip-rule="evenodd" fill="#1D1D1B" d="M116.246,37.856h1.986V20.188c0-2.534,0.314-6.436,3.879-6.436
			c3.385,0,3.385,3.594,3.385,4.484c0,2.875-1.506,4.998-4.586,4.998v1.984c3.215,0.139,5.613,1.336,5.613,5
			c0,4.451-2.188,5.888-4.281,5.888c-0.549,0-1.197-0.097-1.676-0.375l-0.236,2.125c0.543,0.138,1.674,0.239,2.258,0.239
			c5.611,0,6.063-5.646,6.063-7.26c0-3.387-1.305-6.301-5.207-6.779v-0.07c4.035-0.854,4.18-5.061,4.18-5.92
			c0-4.112-2.473-6.302-5.344-6.302c-2.396,0-6.033,1.473-6.033,7.736V37.856z"/>
		<rect x="133.095" y="12.172" fill-rule="evenodd" clip-rule="evenodd" fill="#1D1D1B" width="1.986" height="25.684"/>
		<path fill-rule="evenodd" clip-rule="evenodd" fill="#1D1D1B" d="M150.964,29.779c0-4.246-0.514-9.625-5.582-9.625
			c-2.941,0-6.199,2.396-6.199,8.97c0,1.746,0,8.971,6.848,8.971c2.092,0,3.254-0.549,4.076-0.992l-0.102-2.293
			c-0.998,0.891-2.637,1.438-3.771,1.438c-0.783,0-4.926,0-4.926-6.469H150.964z M141.308,27.929c0-2.266,1.268-5.93,3.973-5.93
			c1.611,0,3.561,1.307,3.561,5.93H141.308z"/>
		<path fill-rule="evenodd" clip-rule="evenodd" fill="#1D1D1B" d="M154.898,37.856h1.988V26.867c0-3.221,1.432-4.588,4.58-4.588
			v-2.125c-1.914,0-3.389,0.513-4.656,3.011h-0.066c-0.033-0.719-0.104-1.74-0.135-2.775h-1.846
			c0.027,1.814,0.135,3.596,0.135,5.414V37.856z"/>
		<rect x="162.808" y="27.496" fill-rule="evenodd" clip-rule="evenodd" fill="#1D1D1B" width="6.863" height="1.955"/>
		<path fill-rule="evenodd" clip-rule="evenodd" fill="#1D1D1B" d="M176.697,16.326h1.816c1.945,0,5.455,0,5.455,4.677
			c0,3.635-2.061,4.674-5.146,4.674h-2.125V16.326z M174.609,37.856h2.088V27.63h2.928c3.025,0,6.561-1.549,6.561-6.627
			c0-4.742-2.758-6.627-7.162-6.627h-4.414V37.856z"/>
		<rect x="189.988" y="12.629" fill-rule="evenodd" clip-rule="evenodd" fill="#1D1D1B" width="1.941" height="25.227"/>
		<path fill-rule="evenodd" clip-rule="evenodd" fill="#1D1D1B" d="M207.308,26.15c0-1.248,0-5.688-5.285-5.688
			c-1.887,0-3.1,0.639-4.711,1.52l0.305,2.081c0.199-0.165,2.018-1.782,4.303-1.782c3.566,0,3.566,3.092,3.566,5.248h-1.246
			c-2.453,0-8.273,0.102-8.273,5.582c0,2.791,2.121,4.975,4.777,4.975c2.217,0,3.631-0.801,4.807-2.688h0.068l0.139,2.458h1.748
			c-0.102-1.276-0.197-2.554-0.197-3.841V26.15z M205.486,31.232c0,4.67-3.363,5.043-4.273,5.043c-2.086,0-3.166-1.717-3.166-3.164
			c0-3.898,3.4-3.898,7.439-3.898V31.232z"/>
		<path fill-rule="evenodd" clip-rule="evenodd" fill="#1D1D1B" d="M212.011,37.856h1.949V27.191c0-2.658,1.512-4.91,3.902-4.91
			c3.197,0,3.197,2.828,3.197,4.002v11.573h1.947V26.349c0-1.146,0-5.887-4.74-5.887c-2.859,0-3.965,2.023-4.373,2.76h-0.068
			c-0.035-1.24-0.068-1.748-0.133-2.521h-1.822c0.035,1.785,0.141,3.53,0.141,5.316V37.856z"/>
	</g>
</g>
</svg>
