<?xml version="1.0" encoding="UTF-8"?>
<svg id="Ebene_1" data-name="Ebene 1" xmlns="http://www.w3.org/2000/svg" viewBox="0 0 1190.5511 841.8898">
  <rect id="MAP_FRAME" x="13.9642" y="13.979" width="935.4331" height="813.5433" fill="#8e44ad"/>
  <text transform="translate(977.224 73.5637)" fill="#878787" font-family="Scandia-Regular, Scandia" font-size="12"><tspan x="0" y="0">{{P</tspan><tspan x="17.7842" y="0" letter-spacing="-.008em">r</tspan><tspan x="22.1289" y="0">oje</tspan><tspan x="39.6484" y="0" letter-spacing="-.005em">k</tspan><tspan x="45.9482" y="0">tname}}</tspan></text>
  <text transform="translate(977.7317 56.2802)" fill="#1d1d1b" font-family="Scandia-Regular, Scandia" font-size="12"><tspan x="0" y="0" letter-spacing="-.015em">L</tspan><tspan x="6.4678" y="0">ageplan</tspan></text>
  <text transform="translate(979.4115 181.2732)" fill="#1d1d1b" font-family="Scandia-Medium, Scandia" font-size="8" font-weight="500" letter-spacing=".02em"><tspan x="0" y="0">DIN A3</tspan></text>
  <text transform="translate(979.4115 265.9789)" fill="#1d1d1b" font-family="Scandia-Medium, Scandia" font-size="8" font-weight="500"><tspan x="0" y="0" letter-spacing=".0071em">A</tspan><tspan x="6.0566" y="0" letter-spacing=".02em">uft</tspan><tspan x="17.3203" y="0" letter-spacing=".012em">r</tspan><tspan x="20.5039" y="0" letter-spacing=".02em">aggeber</tspan></text>
  <text transform="translate(979.4125 278.183)" fill="#1d1d1b" font-family="Scandia-Regular, Scandia" font-size="8"><tspan x="0" y="0">{</tspan><tspan x="3.4717" y="0" letter-spacing="-.0029em">{</tspan><tspan x="6.9199" y="0" letter-spacing="-.015em">A</tspan><tspan x="12.5596" y="0">uft</tspan><tspan x="23.1182" y="0" letter-spacing="-.0081em">r</tspan><tspan x="26.0137" y="0">aggebe</tspan><tspan x="56.541" y="0" letter-spacing="-.0079em">r</tspan><tspan x="59.4375" y="0">}}</tspan></text>
  <text transform="translate(979.4125 315.0522)" fill="#1d1d1b" font-family="Scandia-Medium, Scandia" font-size="8" font-weight="500"><tspan x="0" y="0" letter-spacing=".02em">Ansp</tspan><tspan x="20.4961" y="0" letter-spacing=".0121em">r</tspan><tspan x="23.6807" y="0" letter-spacing=".0199em">echpartner Bauleitung</tspan></text>
  <text transform="translate(979.4125 327.2563)" fill="#1d1d1b" font-family="Scandia-Regular, Scandia" font-size="8"><tspan x="0" y="0">{</tspan><tspan x="3.4717" y="0" letter-spacing="-.0029em">{</tspan><tspan x="6.9199" y="0">Ansp</tspan><tspan x="26.4707" y="0" letter-spacing="-.0081em">r</tspan><tspan x="29.3662" y="0">echpartne</tspan><tspan x="70.0117" y="0" letter-spacing="-.0079em">r</tspan><tspan x="72.9082" y="0" letter-spacing="-.0001em">}}</tspan></text>
  <text transform="translate(980.2065 413.3927)" fill="#1d1d1b" font-family="Scandia-Medium, Scandia" font-size="8" font-weight="500"><tspan x="0" y="0" letter-spacing=".0171em">P</tspan><tspan x="5.3525" y="0" letter-spacing=".012em">r</tspan><tspan x="8.5361" y="0" letter-spacing=".02em">oje</tspan><tspan x="20.9355" y="0" letter-spacing=".0131em">k</tspan><tspan x="25.5684" y="0" letter-spacing=".02em">tbesch</tspan><tspan x="53.1689" y="0" letter-spacing=".012em">r</tspan><tspan x="56.3525" y="0" letter-spacing=".02em">eibung</tspan></text>
  <text transform="translate(980.2074 425.5969)" fill="#1d1d1b" font-family="Scandia-Regular, Scandia" font-size="8"><tspan x="0" y="0">{{P</tspan><tspan x="11.8555" y="0" letter-spacing="-.0079em">r</tspan><tspan x="14.752" y="0" letter-spacing="-.0001em">oje</tspan><tspan x="26.4316" y="0" letter-spacing="-.005em">k</tspan><tspan x="30.6318" y="0">tbesch</tspan><tspan x="57.0225" y="0" letter-spacing="-.0081em">r</tspan><tspan x="59.918" y="0">eibung}}</tspan></text>
  <text transform="translate(980.2064 364.3195)" fill="#1d1d1b" font-family="Scandia-Medium, Scandia" font-size="8" font-weight="500" letter-spacing=".02em"><tspan x="0" y="0">Baubeginn</tspan></text>
  <text transform="translate(979.0229 735.6275)" fill="#1d1d1b" font-family="Scandia-Medium, Scandia" font-size="8" font-weight="500"><tspan x="0" y="0" letter-spacing="-.0499em">T</tspan><tspan x="4.4961" y="0" letter-spacing=".012em">r</tspan><tspan x="7.6797" y="0" letter-spacing=".02em">a</tspan><tspan x="13.1357" y="0" letter-spacing=".0179em">s</tspan><tspan x="16.9756" y="0" letter-spacing=".02em">si</tspan><tspan x="23.168" y="0" letter-spacing=".03em">f</tspan><tspan x="26.248" y="0" letter-spacing=".02em">y GmbH</tspan></text>
  <text transform="translate(979.0239 749.3534)" fill="#1d1d1b" font-family="Scandia-Regular, Scandia" font-size="8"><tspan x="0" y="0" letter-spacing=".02em">O</tspan><tspan x="6.9121" y="0" letter-spacing=".012em">s</tspan><tspan x="10.6562" y="0" letter-spacing=".02em">tpar</tspan><tspan x="27.8076" y="0" letter-spacing=".0079em">k</tspan><tspan x="32.1113" y="0" letter-spacing=".0121em">s</tspan><tspan x="35.8555" y="0" letter-spacing=".02em">t</tspan><tspan x="39.0391" y="0" letter-spacing=".0118em">r</tspan><tspan x="42.0938" y="0" letter-spacing=".02em">aße 37</tspan><tspan x="0" y="11" letter-spacing=".02em">60385 F</tspan><tspan x="30.9121" y="11" letter-spacing=".012em">r</tspan><tspan x="33.9678" y="11" letter-spacing=".02em">ankfurt am Main</tspan></text>
  <text transform="translate(979.0239 777.543)" fill="#1d1d1b" font-family="Scandia-Regular, Scandia" font-size="8"><tspan x="0" y="0">+</tspan><tspan x="4.7676" y="0" letter-spacing="-.04em">4</tspan><tspan x="9.0547" y="0">9 151 5</tspan><tspan x="32.7031" y="0" letter-spacing="-.01em">3</tspan><tspan x="37.2227" y="0">28</tspan><tspan x="46.3906" y="0" letter-spacing="-.0399em">4</tspan><tspan x="50.6787" y="0">985</tspan><tspan x="0" y="9">in</tspan><tspan x="6.832" y="9" letter-spacing="-.014em">f</tspan><tspan x="9.4072" y="9">o@t</tspan><tspan x="25.1748" y="9" letter-spacing="-.0079em">r</tspan><tspan x="28.0713" y="9">a</tspan><tspan x="33.335" y="9" letter-spacing="-.001em">s</tspan><tspan x="36.9746" y="9">si</tspan><tspan x="42.5752" y="9" letter-spacing=".01em">f</tspan><tspan x="45.3438" y="9" letter-spacing="-.0601em">y</tspan><tspan x="49.0547" y="9" letter-spacing="-.005em">.</tspan><tspan x="50.999" y="9">de</tspan></text>
  <text transform="translate(980.2074 376.5236)" fill="#1d1d1b" font-family="Scandia-Regular, Scandia" font-size="8"><tspan x="0" y="0">{{Baubeginn}}</tspan></text>
  <text transform="translate(978.5052 236.8396)" fill="#1d1d1b" font-family="Scandia-Regular, Scandia" font-size="8"><tspan x="0" y="0">IN</tspan><tspan x="8.3271" y="0" letter-spacing=".005em">F</tspan><tspan x="12.7354" y="0">OS</tspan></text>
  <text transform="translate(979.4115 199.0531)" fill="#1d1d1b" font-family="Scandia-Medium, Scandia" font-size="8" font-weight="500" letter-spacing=".02em"><tspan x="0" y="0">{{Datum}}</tspan></text>
  <text transform="translate(979.4115 162.3275)" fill="#1d1d1b" font-family="Scandia-Medium, Scandia" font-size="8" font-weight="500"><tspan x="0" y="0" letter-spacing=".02em">ID: {{</tspan><tspan x="20.3271" y="0" letter-spacing=".004em">K</tspan><tspan x="25.791" y="0" letter-spacing="-.002em">S</tspan><tspan x="30.4795" y="0" letter-spacing=".02em">T}}</tspan></text>
  <g>
    <path d="M980.2066,123.1069v1.7432h-.6396v-5.5972h2.0312c1.1992,0,1.998.8955,1.998,1.9189s-.7988,1.9351-1.998,1.9351h-1.3916ZM981.5337,122.5552c.9277,0,1.4316-.6792,1.4316-1.3833,0-.7031-.5039-1.3672-1.4316-1.3672h-1.3271v2.7505h1.3271Z" fill="#1d1d1b"/>
    <path d="M984.479,119.2529h.6396v5.0376h2.7588v.5596h-3.3984v-5.5972Z" fill="#1d1d1b"/>
    <path d="M992.6284,123.6426h-2.9268l-.4873,1.2075h-.6641l2.3506-5.5972h.5283l2.3506,5.5972h-.6641l-.4873-1.2075ZM989.9175,123.1069h2.4951l-1.248-3.1182-1.2471,3.1182Z" fill="#1d1d1b"/>
    <path d="M994.7661,119.2529h.4961l3.6533,4.5977v-4.5977h.5918v5.5972h-.4961l-3.6533-4.5977v4.5977h-.5918v-5.5972Z" fill="#1d1d1b"/>
  </g>
  <line x1="963.9513" y1="827.5223" x2="963.9513" y2="13.979" fill="none" stroke="#000" stroke-miterlimit="10"/>
  <circle cx="1128.6335" cy="178.4959" r="30.5999" fill="none" stroke="#1d1d1b" stroke-miterlimit="10"/>
  <polygon points="1128.6335 153.9989 1124.6173 162.8413 1132.6498 162.8413 1128.6335 153.9989 1124.6173 162.8413 1132.6498 162.8413 1128.6335 153.9989" fill="none" stroke="#1d1d1b" stroke-miterlimit="10" stroke-width=".25"/>
  <path d="M1124.498,175.1406h.7441l5.4805,6.8965v-6.8965h.8877v8.3955h-.7432l-5.4814-6.896v6.896h-.8877v-8.3955Z"/>
  <line x1="1162.2719" y1="114.8462" x2="978.8118" y2="114.8462" fill="none" stroke="#1d1d1b" stroke-miterlimit="10" stroke-width=".5"/>
  <line x1="1162.2719" y1="129.7437" x2="978.8118" y2="129.7437" fill="none" stroke="#1d1d1b" stroke-miterlimit="10" stroke-width=".5"/>
  <line x1="1162.2719" y1="226.6652" x2="978.8118" y2="226.6652" fill="none" stroke="#1d1d1b" stroke-miterlimit="10" stroke-width=".5"/>
  <line x1="1162.2719" y1="241.5627" x2="978.8118" y2="241.5627" fill="none" stroke="#1d1d1b" stroke-miterlimit="10" stroke-width=".5"/>
  <text transform="translate(978.5052 708.6373)" fill="#1d1d1b" font-family="Scandia-Regular, Scandia" font-size="8"><tspan x="0" y="0">ANF</tspan><tspan x="16.3115" y="0" letter-spacing=".005em">R</tspan><tspan x="21.6631" y="0" letter-spacing="-.035em">A</tspan><tspan x="27.1426" y="0">GE DURCH</tspan></text>
  <line x1="1162.2719" y1="698.4629" x2="978.8118" y2="698.4629" fill="none" stroke="#1d1d1b" stroke-miterlimit="10" stroke-width=".5"/>
  <line x1="1162.2719" y1="713.3604" x2="978.8118" y2="713.3604" fill="none" stroke="#1d1d1b" stroke-miterlimit="10" stroke-width=".5"/>
  <g>
    <path d="M999.7937,806.0561h-3.4848v-2.1258h9.2557v2.1258h-3.4848v9.5605h-2.2877v-9.5605h.0016Z"/>
    <path d="M1006.2092,810.4871c0-2.6624,1.5717-3.9309,3.8769-3.9309s3.8594,1.2685,3.8594,3.9674v.054h-2.1083v-.0889c0-1.4288-.7144-1.948-1.7511-1.948s-1.7511.5191-1.7511,1.948v5.1279h-2.1258v-5.1295Z"/>
    <path d="M1030.1787,813.2669c-.2286-.9589-1.7162-.697-3.3054-1.6193-.7509-.4366-1.6813-1.459-3.5403-3.507-.2064-.227-.4287-.4779-.8001-.7414-.7668-.543-1.7416-.8446-2.8513-.8446-2.8069,0-4.7723,1.9321-4.7723,4.7342,0,3.0228,2.2528,4.5564,4.396,4.5564,1.3923,0,2.591-.6589,3.1276-1.9654v1.7352h1.9464v-1.9051c-.0365-.543.1111-1.0049.4398-1.1843.3318-.1794.7303.0032.8891.0746.9637.4398.797,1.3431,1.5781,1.8432.9224.5842,2.5878.235,2.8656-.5509.0667-.1794.0826-.3905.0254-.6255h.0016ZM1019.6641,813.8639c-1.5558,0-2.61-1.105-2.61-2.6608s1.0542-2.6608,2.61-2.6608,2.591,1.1097,2.591,2.6608-1.0351,2.6608-2.591,2.6608Z"/>
    <path d="M1042.4968,802.8047c-.8224,0-1.4114.6065-1.4114,1.4288s.5874,1.4114,1.4114,1.4114,1.4114-.5874,1.4114-1.4114-.5874-1.4288-1.4114-1.4288Z"/>
    <path d="M1046.0689,806.5927c0-2.6084,1.5733-3.896,3.8769-3.896s3.8594,1.305,3.8594,3.9134h-2.1083c0-1.3939-.7144-1.9305-1.7511-1.9305s-1.7511.5541-1.7511,1.9115v1.4304h4.5389v1.9289h-4.5389v5.6645h-2.1258v-9.0223Z"/>
    <path d="M1054.861,816.5803h2.1258c.3572.8224,1.0542,1.197,2.1258,1.197,1.4479,0,2.2687-.697,2.2687-2.4116v-1.1081c-.5366.9653-1.4653,1.4828-2.6275,1.4828-2.0369,0-3.9674-1.3225-3.9674-4.4675v-4.485h2.1258v4.485c0,1.6797.8938,2.4846,2.2337,2.4846s2.2337-.8398,2.2337-2.4846v-4.485h2.1258v8.5238c0,3.0736-1.948,4.3071-4.396,4.3071-2.0543,0-3.7515-.9462-4.2532-3.0387h.0048Z"/>
    <path d="M1043.5494,806.7911v8.8254h-2.1258v-3.1863c-.2683-.9351-1.4923-1.6082-2.3973-1.9051-1.0986-.3604-3.0117-.3239-3.3085-1.6193-.0524-.235-.0413-.4461.0254-.6255.2937-.8192,2.0178-1.1653,2.8656-.5509.6176.4509.4287,1.1542,1.2463,1.6638.1635.1048.5652.3493.9462.2239.2905-.1.5176-.4096.6223-.8414v-1.9845s2.1258,0,2.1258,0Z"/>
    <path d="M1036.156,814.4434c-.5096-.3382-.7335-.9684-1.1637-1.3844-.1508-.1445-.2635-.1762-.5493-.3382-1.6368-.9367-1.975-1.3415-3.2085-1.8972-.1921-.0857-.3636-.1778-.7287-.3001-1.0954-.362-3.0101-.3239-3.307-1.6193-.3286-1.4272,1.8353-1.8781,2.891-1.1764.5096.3413.7335.9684,1.1637,1.3844.1032.1.1984.1508.3747.2699,1.1208.7557,2.0607,1.3891,3.3848,1.9702.227.1.3874.1857.7271.2969,1.0954.3588,3.0117.3239,3.3085,1.6193.327,1.4272-1.8368,1.8765-2.8926,1.1748Z"/>
  </g>
  <path d="M981.9496,805.6408h0c.5075-.5075,1.3305-.5072,1.8383.0006l7.3508,7.3508c.5078.5078.508,1.3308.0006,1.8383h0c-.5075.5075-1.3305.5072-1.8383-.0006l-7.3508-7.3508c-.5078-.5078-.508-1.3308-.0006-1.8383Z" fill="#a6c5a1"/>
  <path d="M978.8857,808.705h0c.5075-.5075,1.3305-.5072,1.8383.0006l4.5937,4.5937c.5078.5078.508,1.3308.0006,1.8383h0c-.5075.5075-1.3305.5072-1.8383-.0006l-4.5937-4.5937c-.5078-.5078-.508-1.3308-.0006-1.8383Z" fill="#a6c5a1"/>
  <path d="M990.8765,804.3728h.5273c.5713,0,1.0352.4638,1.0352,1.0352v6.5925c0,.5717-.4641,1.0358-1.0358,1.0358h-.5273c-.5717,0-1.0358-.4641-1.0358-1.0358v-6.5913c0-.572.4644-1.0364,1.0364-1.0364Z" transform="translate(-281.5425 937.7055) rotate(-45)" fill="#a6c5a1"/>
</svg>