<svg width="12" height="12" viewBox="0 0 12 12" fill="none" xmlns="http://www.w3.org/2000/svg">
<path d="M9.54263 3.41464L7.29262 2.28964C7.24053 2.26357 7.18307 2.25 7.12481 2.25C7.06656 2.25 7.0091 2.26357 6.957 2.28964L4.875 3.33102L2.79263 2.28964C2.73544 2.26107 2.6719 2.24759 2.60803 2.25048C2.54417 2.25337 2.48211 2.27254 2.42774 2.30617C2.37337 2.3398 2.3285 2.38677 2.29739 2.44262C2.26628 2.49847 2.24997 2.56134 2.25 2.62527V7.50027C2.25 7.64239 2.33025 7.77214 2.45738 7.83589L4.70738 8.96089C4.75947 8.98696 4.81693 9.00054 4.87519 9.00054C4.93344 9.00054 4.9909 8.98696 5.043 8.96089L7.125 7.91952L9.20737 8.96052C9.26438 8.98944 9.32789 9.00315 9.39174 9.00032C9.4556 8.9975 9.51765 8.97823 9.57187 8.94439C9.6825 8.87577 9.75 8.75539 9.75 8.62527V3.75027C9.75 3.60814 9.66975 3.47839 9.54263 3.41464ZM5.25 3.98202L6.75 3.23202V7.26852L5.25 8.01852V3.98202ZM3 3.23202L4.5 3.98202V8.01852L3 7.26852V3.23202ZM9 8.01852L7.5 7.26852V3.23202L9 3.98202V8.01852Z" fill="#94A3B8"/>
</svg>
