<svg xmlns="http://www.w3.org/2000/svg" xmlns:xlink="http://www.w3.org/1999/xlink" aria-hidden="true" role="img" class="iconify iconify--ph" width="100%" height="100%" preserveAspectRatio="xMidYMid meet" viewBox="0 0 256 256"><path fill="currentColor" d="M116 128a12 12 0 1 1 12 12a12 12 0 0 1-12-12Zm96.3 27.7a40 40 0 0 1-56.6 56.6L128 184.6l-27.7 27.7a40 40 0 0 1-56.6-56.6L71.4 128l-27.7-27.7a40 40 0 0 1 56.6-56.6L128 71.4l27.7-27.7a40 40 0 0 1 56.6 56.6L184.6 128Zm-73-73l34 34L201 89a24 24 0 0 0-34-34ZM128 94.1L94.1 128l33.9 33.9l33.9-33.9Zm-45.3 22.6l34-34L89 55a24 24 0 0 0-34 34Zm34 56.6l-34-34L55 167a24 24 0 0 0 34 34ZM208 184a24.2 24.2 0 0 0-7-17l-27.7-27.7l-34 34L167 201a24 24 0 0 0 41-17Z"></path></svg>