<svg width="10" height="10" viewBox="0 0 10 10" fill="none" xmlns="http://www.w3.org/2000/svg">
<path d="M7.16062 5.15625L8.03344 4.28344C8.09202 4.22483 8.12493 4.14536 8.12493 4.0625C8.12493 3.97964 8.09202 3.90017 8.03344 3.84156L7.31687 3.125L7.96875 2.47312L8.93313 3.4375L9.375 2.99563L7.00437 0.625L6.5625 1.06688L7.52688 2.03125L6.875 2.68313L6.15844 1.96656C6.09984 1.90798 6.02036 1.87507 5.9375 1.87507C5.85464 1.87507 5.77516 1.90798 5.71656 1.96656L4.84375 2.83938L2.72094 0.716562C2.66233 0.657978 2.58286 0.625067 2.5 0.625067C2.41714 0.625067 2.33766 0.657978 2.27906 0.716562L0.716562 2.27906C0.657978 2.33766 0.625067 2.41714 0.625067 2.5C0.625067 2.58286 0.657978 2.66233 0.716562 2.72094L2.83938 4.84375L1.96656 5.71656C1.90798 5.77516 1.87507 5.85464 1.87507 5.9375C1.87507 6.02036 1.90798 6.09984 1.96656 6.15844L2.68313 6.875L2.03125 7.52688L1.06688 6.5625L0.625 7.00437L2.99563 9.375L3.4375 8.93313L2.47312 7.96875L3.125 7.31687L3.84156 8.03344C3.90017 8.09202 3.97964 8.12493 4.0625 8.12493C4.14536 8.12493 4.22483 8.09202 4.28344 8.03344L5.15625 7.16062L7.27906 9.28344C7.33766 9.34202 7.41714 9.37493 7.5 9.37493C7.58286 9.37493 7.66234 9.34202 7.72094 9.28344L9.28344 7.72094C9.34202 7.66234 9.37493 7.58286 9.37493 7.5C9.37493 7.41714 9.34202 7.33766 9.28344 7.27906L7.16062 5.15625ZM1.37937 2.5L2.5 1.37937L3.15188 2.03125L2.03125 3.15188L1.37937 2.5ZM2.47312 3.59375L3.59375 2.47312L4.40188 3.28125L3.28125 4.40188L2.47312 3.59375ZM4.0625 7.37063L2.62937 5.9375L5.9375 2.62937L7.37063 4.0625L4.0625 7.37063ZM5.59812 6.71875L6.71875 5.59812L7.52688 6.40625L6.40625 7.52688L5.59812 6.71875ZM7.5 8.62063L6.84812 7.96875L7.96875 6.84812L8.62063 7.5L7.5 8.62063Z" fill="#94A3B8"/>
</svg>
