<svg width="24" height="24" viewBox="0 0 24 24" fill="none" xmlns="http://www.w3.org/2000/svg">
<path fill-rule="evenodd" clip-rule="evenodd" d="M10.7729 13.9792C11.7788 14.8163 13.0721 15.3198 14.4831 15.3198C17.6884 15.3198 20.2868 12.7214 20.2868 9.51611C20.2868 6.31081 17.6884 3.7124 14.4831 3.7124C11.2778 3.7124 8.67936 6.31081 8.67936 9.51611C8.67936 10.9275 9.18319 12.2213 10.0208 13.2273L7.21289 14.7873L3.71289 18.2873L5.71289 20.2873L9.21289 16.7873L10.7729 13.9792ZM10.1794 9.51611C10.1794 11.893 12.1062 13.8198 14.4831 13.8198C16.8599 13.8198 18.7868 11.893 18.7868 9.51611C18.7868 7.13924 16.8599 5.2124 14.4831 5.2124C12.1062 5.2124 10.1794 7.13924 10.1794 9.51611Z" fill="black"/>
</svg>
