<svg width="11" height="11" viewBox="0 0 11 11" fill="none" xmlns="http://www.w3.org/2000/svg">
<path d="M5.49984 0.916626C2.979 0.916626 0.916504 2.97913 0.916504 5.49996C0.916504 8.02079 2.979 10.0833 5.49984 10.0833C8.02067 10.0833 10.0832 8.02079 10.0832 5.49996C10.0832 2.97913 8.02067 0.916626 5.49984 0.916626ZM1.83317 5.49996C1.83317 3.48329 3.48317 1.83329 5.49984 1.83329C6.32484 1.83329 7.104 2.10829 7.74567 2.61246L2.61234 7.74579C2.10817 7.10413 1.83317 6.32496 1.83317 5.49996ZM5.49984 9.16663C4.67484 9.16663 3.89567 8.89163 3.254 8.38746L8.38734 3.25413C8.8915 3.89579 9.1665 4.67496 9.1665 5.49996C9.1665 7.51663 7.5165 9.16663 5.49984 9.16663Z" fill="#0F172A"/>
</svg>
