<svg width="24" height="24" viewBox="0 0 24 24" fill="none" xmlns="http://www.w3.org/2000/svg">
<path fill-rule="evenodd" clip-rule="evenodd" d="M3 7C3 5.89543 3.89543 5 5 5H19C20.1046 5 21 5.89543 21 7V17C21 18.1046 20.1046 19 19 19H5C3.89543 19 3 18.1046 3 17V7ZM5 6.5H19C19.2761 6.5 19.5 6.72386 19.5 7V8.5H4.5V7C4.5 6.72386 4.72386 6.5 5 6.5ZM4.5 13V14.5H8.5V13H4.5ZM8.5 11.5H4.5V10H8.5V11.5ZM10 13V14.5H14V13H10ZM14 11.5H10V10H14V11.5ZM15.5 13V14.5H19.5V13H15.5ZM19.5 11.5H15.5V10H19.5V11.5ZM14 16H10V17.5H14V16ZM8.5 16H4.5V17C4.5 17.2761 4.72386 17.5 5 17.5H8.5V16ZM19.5 16H15.5V17.5H19C19.2761 17.5 19.5 17.2761 19.5 17V16Z" fill="black"/>
</svg>
