<svg xmlns="http://www.w3.org/2000/svg" xmlns:xlink="http://www.w3.org/1999/xlink" aria-hidden="true" role="img" class="iconify iconify--ph" width="100%" height="100%" preserveAspectRatio="xMidYMid meet" viewBox="0 0 256 256"><path fill="currentColor" d="M224 88h-48.6l8.5-46.6a8 8 0 0 0-15.8-2.8l-9 49.4h-47.7l8.5-46.6a8 8 0 1 0-15.8-2.8l-9 49.4H43.6a8 8 0 1 0 0 16h48.6l-8.7 48H32a8 8 0 0 0 0 16h48.6l-8.5 46.6a8 8 0 0 0 6.5 9.3H80a8 8 0 0 0 7.9-6.6l9-49.4h47.7l-8.5 46.6a8 8 0 0 0 6.5 9.3h1.4a8 8 0 0 0 7.9-6.6l9-49.4h51.5a8 8 0 0 0 0-16h-48.6l8.7-48H224a8 8 0 0 0 0-16Zm-76.5 64H99.8l8.7-48h47.7Z"></path></svg>