<svg xmlns="http://www.w3.org/2000/svg" xmlns:xlink="http://www.w3.org/1999/xlink" aria-hidden="true" role="img" class="iconify iconify--ph" width="100%" height="100%" preserveAspectRatio="xMidYMid meet" viewBox="0 0 256 256"><path fill="currentColor" d="M80.3 87.6a8 8 0 0 1 0-11.3l42-42a8.1 8.1 0 0 1 11.4 0l42 42a8 8 0 0 1 0 11.3a8 8 0 0 1-11.4 0L136 59.3V152a8 8 0 0 1-16 0V59.3L91.7 87.6a8 8 0 0 1-11.4 0ZM216 144a8 8 0 0 0-8 8v56H48v-56a8 8 0 0 0-16 0v56a16 16 0 0 0 16 16h160a16 16 0 0 0 16-16v-56a8 8 0 0 0-8-8Z"></path></svg>