<svg xmlns="http://www.w3.org/2000/svg" xmlns:xlink="http://www.w3.org/1999/xlink" aria-hidden="true" role="img" class="iconify iconify--ph" width="100%" height="100%" preserveAspectRatio="xMidYMid meet" viewBox="0 0 256 256"><path fill="currentColor" d="M103.5 230.3a15.8 15.8 0 0 1-15.1-10.8L29.8 50.2a16 16 0 0 1 20.4-20.4l169.3 58.6a15.9 15.9 0 0 1 10.8 15.4a15.8 15.8 0 0 1-11.3 15l-76.6 23.6l-23.6 76.6a15.6 15.6 0 0 1-15 11.2ZM45 44.9l58.6 169.4l23.5-76.6a16.1 16.1 0 0 1 10.6-10.6l76.6-23.5Zm0 0Z"></path></svg>