<svg xmlns="http://www.w3.org/2000/svg" xmlns:xlink="http://www.w3.org/1999/xlink" aria-hidden="true" role="img" class="iconify iconify--ph" width="100%" height="100%" preserveAspectRatio="xMidYMid meet" viewBox="0 0 256 256"><path fill="currentColor" d="M232 92.7L163.3 24a16.1 16.1 0 0 0-22.6 0l-25.1 25.1l-58.1 21.8a15.9 15.9 0 0 0-10.1 12.3L24.1 222.7A7.9 7.9 0 0 0 32 232h1.3l139.5-23.2a16.2 16.2 0 0 0 12.3-10.2l21.8-58.1l25.1-25.2a16.1 16.1 0 0 0 0-22.6Zm-61.9 100.2L55.3 212l47.4-47.4A27.1 27.1 0 0 0 116 168a28 28 0 1 0-28-28a27.1 27.1 0 0 0 3.4 13.3L44 200.7L63.1 85.9L118 65.3l72.7 72.7ZM104 140a12 12 0 1 1 12 12a12 12 0 0 1-12-12Zm96-15.3L131.3 56L152 35.3l68.7 68.7Z"></path></svg>